<?xml version="1.0" encoding="UTF-8"?>
<svg width="1429px" height="852px" viewBox="0 0 1429 852" version="1.1" xmlns="http://www.w3.org/2000/svg" xmlns:xlink="http://www.w3.org/1999/xlink">
    <title>banner</title>
    <defs>
        <linearGradient x1="50%" y1="-30.1969365%" x2="50%" y2="91.5025529%" id="linearGradient-1">
            <stop stop-color="#D7FF95" offset="0%"></stop>
            <stop stop-color="#51FCB7" offset="100%"></stop>
        </linearGradient>
        <linearGradient x1="50%" y1="-30.1764706%" x2="50%" y2="91.5294118%" id="linearGradient-2">
            <stop stop-color="#D7FF95" offset="0%"></stop>
            <stop stop-color="#51FCB7" offset="100%"></stop>
        </linearGradient>
        <linearGradient x1="50%" y1="-30.2036199%" x2="50%" y2="91.4027149%" id="linearGradient-3">
            <stop stop-color="#D7FF95" offset="0%"></stop>
            <stop stop-color="#51FCB7" offset="100%"></stop>
        </linearGradient>
        <linearGradient x1="50%" y1="-30.25%" x2="50%" y2="91.5%" id="linearGradient-4">
            <stop stop-color="#D7FF95" offset="0%"></stop>
            <stop stop-color="#51FCB7" offset="100%"></stop>
        </linearGradient>
        <linearGradient x1="30.1883069%" y1="-12.6614885%" x2="64.8287459%" y2="91.8049587%" id="linearGradient-5">
            <stop stop-color="#000000" stop-opacity="0" offset="0%"></stop>
            <stop stop-color="#000000" offset="100%"></stop>
        </linearGradient>
        <linearGradient x1="5.19564801%" y1="9.58191554%" x2="82.6349964%" y2="76.2144093%" id="linearGradient-6">
            <stop stop-color="#000000" stop-opacity="0" offset="0%"></stop>
            <stop stop-color="#000000" offset="100%"></stop>
        </linearGradient>
        <linearGradient x1="65.813405%" y1="-0.999921501%" x2="39.8082009%" y2="83.8071277%" id="linearGradient-7">
            <stop stop-color="#000000" stop-opacity="0" offset="0%"></stop>
            <stop stop-color="#000000" offset="100%"></stop>
        </linearGradient>
        <linearGradient x1="91.1012841%" y1="4.79313018%" x2="23.2535748%" y2="82.9243771%" id="linearGradient-8">
            <stop stop-color="#000000" stop-opacity="0" offset="0%"></stop>
            <stop stop-color="#000000" offset="100%"></stop>
        </linearGradient>
        <linearGradient x1="-1.26861543e-13%" y1="50%" x2="100.005697%" y2="50%" id="linearGradient-9">
            <stop stop-color="#000000" stop-opacity="0" offset="0%"></stop>
            <stop stop-color="#000000" offset="100%"></stop>
        </linearGradient>
        <linearGradient x1="32.6638867%" y1="57.1780779%" x2="68.431552%" y2="43.6213375%" id="linearGradient-10">
            <stop stop-color="#000000" stop-opacity="0" offset="0%"></stop>
            <stop stop-color="#000000" offset="100%"></stop>
        </linearGradient>
        <linearGradient x1="41.5883519%" y1="29.7554548%" x2="58.0014822%" y2="71.5600517%" id="linearGradient-11">
            <stop stop-color="#000000" stop-opacity="0" offset="0%"></stop>
            <stop stop-color="#000000" offset="100%"></stop>
        </linearGradient>
        <linearGradient x1="49.997312%" y1="-6.88423618%" x2="49.997312%" y2="108.195787%" id="linearGradient-12">
            <stop stop-color="#000000" stop-opacity="0" offset="0%"></stop>
            <stop stop-color="#000000" offset="100%"></stop>
        </linearGradient>
        <linearGradient x1="11.0122658%" y1="9.70073651%" x2="98.3656015%" y2="76.6595128%" id="linearGradient-13">
            <stop stop-color="#000000" offset="0%"></stop>
            <stop stop-color="#000000" stop-opacity="0" offset="100%"></stop>
        </linearGradient>
        <linearGradient x1="52.9818098%" y1="96.9517117%" x2="48.3766981%" y2="20.1141305%" id="linearGradient-14">
            <stop stop-color="#000000" offset="0%"></stop>
            <stop stop-color="#000000" stop-opacity="0" offset="100%"></stop>
        </linearGradient>
        <linearGradient x1="88.1435058%" y1="91.8833285%" x2="53.5077061%" y2="42.8506756%" id="linearGradient-15">
            <stop stop-color="#06D288" offset="0%"></stop>
            <stop stop-color="#005C57" offset="100%"></stop>
        </linearGradient>
        <linearGradient x1="50%" y1="100%" x2="50%" y2="-6.46693691%" id="linearGradient-16">
            <stop stop-color="#06D288" offset="0%"></stop>
            <stop stop-color="#005C57" offset="100%"></stop>
        </linearGradient>
        <linearGradient x1="108.430302%" y1="49.9446916%" x2="84.4811209%" y2="49.9672907%" id="linearGradient-17">
            <stop stop-color="#06D288" offset="0%"></stop>
            <stop stop-color="#005C57" offset="100%"></stop>
        </linearGradient>
        <linearGradient x1="4.07626177%" y1="49.8943892%" x2="138.873618%" y2="50.2048734%" id="linearGradient-18">
            <stop stop-color="#06D288" offset="0%"></stop>
            <stop stop-color="#005C57" offset="100%"></stop>
        </linearGradient>
        <linearGradient x1="0%" y1="50%" x2="100%" y2="50%" id="linearGradient-19">
            <stop stop-color="#FFFFFF" offset="0%"></stop>
            <stop stop-color="#B0B0B0" offset="100%"></stop>
        </linearGradient>
        <linearGradient x1="28.3308718%" y1="-1.95986934%" x2="108.092209%" y2="147.036864%" id="linearGradient-20">
            <stop stop-color="#FFFFFF" offset="0%"></stop>
            <stop stop-color="#B0B0B0" offset="100%"></stop>
        </linearGradient>
        <linearGradient x1="1.0947168%" y1="-35.0622005%" x2="81.1994288%" y2="87.9466791%" id="linearGradient-21">
            <stop stop-color="#FFFFFF" offset="0%"></stop>
            <stop stop-color="#B0B0B0" offset="100%"></stop>
        </linearGradient>
        <linearGradient x1="62.7473525%" y1="-27.5878261%" x2="24.5317049%" y2="45.7569565%" id="linearGradient-22">
            <stop stop-color="#FFFFFF" offset="0%"></stop>
            <stop stop-color="#B0B0B0" offset="100%"></stop>
        </linearGradient>
        <linearGradient x1="82.3350764%" y1="35.5522737%" x2="-63.2566372%" y2="33.6149267%" id="linearGradient-23">
            <stop stop-color="#FFFFFF" offset="0%"></stop>
            <stop stop-color="#B0B0B0" offset="100%"></stop>
        </linearGradient>
        <linearGradient x1="116.813482%" y1="11.7525396%" x2="26.9151816%" y2="6.41243397%" id="linearGradient-24">
            <stop stop-color="#FFFFFF" offset="0%"></stop>
            <stop stop-color="#B0B0B0" offset="100%"></stop>
        </linearGradient>
        <linearGradient x1="70.9050277%" y1="66.2651067%" x2="31.7462291%" y2="36.8865525%" id="linearGradient-25">
            <stop stop-color="#FFFFFF" offset="0%"></stop>
            <stop stop-color="#B0B0B0" offset="100%"></stop>
        </linearGradient>
        <linearGradient x1="31.0621688%" y1="81.8597509%" x2="85.4370635%" y2="-34.7946141%" id="linearGradient-26">
            <stop stop-color="#FFFFFF" offset="0%"></stop>
            <stop stop-color="#B0B0B0" offset="100%"></stop>
        </linearGradient>
        <linearGradient x1="-5.70314701%" y1="132.051054%" x2="85.5137498%" y2="17.6986003%" id="linearGradient-27">
            <stop stop-color="#FFFFFF" offset="0%"></stop>
            <stop stop-color="#B0B0B0" offset="100%"></stop>
        </linearGradient>
        <linearGradient x1="27.5471632%" y1="73.9062091%" x2="69.1264906%" y2="25.0720461%" id="linearGradient-28">
            <stop stop-color="#000000" offset="0%"></stop>
            <stop stop-color="#000000" stop-opacity="0" offset="100%"></stop>
        </linearGradient>
        <linearGradient x1="28.1051962%" y1="70.6290957%" x2="88.2930996%" y2="7.95543906%" id="linearGradient-29">
            <stop stop-color="#000000" offset="0%"></stop>
            <stop stop-color="#000000" stop-opacity="0" offset="100%"></stop>
        </linearGradient>
        <linearGradient x1="-7.00788454%" y1="55.2245719%" x2="92.98252%" y2="36.6325414%" id="linearGradient-30">
            <stop stop-color="#000000" offset="0%"></stop>
            <stop stop-color="#000000" stop-opacity="0" offset="100%"></stop>
        </linearGradient>
        <linearGradient x1="72.9147936%" y1="111.441509%" x2="32.3670874%" y2="-0.219986963%" id="linearGradient-31">
            <stop stop-color="#000000" offset="0%"></stop>
            <stop stop-color="#000000" stop-opacity="0" offset="100%"></stop>
        </linearGradient>
        <linearGradient x1="23.1348516%" y1="103.337544%" x2="65.3884179%" y2="18.9997092%" id="linearGradient-32">
            <stop stop-color="#000000" offset="0%"></stop>
            <stop stop-color="#000000" stop-opacity="0" offset="100%"></stop>
        </linearGradient>
        <linearGradient x1="1.35025857%" y1="56.7594391%" x2="97.9141088%" y2="43.8484984%" id="linearGradient-33">
            <stop stop-color="#000000" offset="0%"></stop>
            <stop stop-color="#000000" stop-opacity="0" offset="100%"></stop>
        </linearGradient>
        <linearGradient x1="106.052619%" y1="-17.6599125%" x2="-31.0924208%" y2="94.7531075%" id="linearGradient-34">
            <stop stop-color="#000000" offset="0%"></stop>
            <stop stop-color="#000000" stop-opacity="0" offset="100%"></stop>
        </linearGradient>
        <linearGradient x1="54.0934747%" y1="10.2466824%" x2="45.056727%" y2="85.8933307%" id="linearGradient-35">
            <stop stop-color="#000000" offset="0%"></stop>
            <stop stop-color="#000000" stop-opacity="0" offset="100%"></stop>
        </linearGradient>
        <linearGradient x1="43.7706325%" y1="26.9620696%" x2="49.3123131%" y2="47.5501203%" id="linearGradient-36">
            <stop stop-color="#000000" offset="0%"></stop>
            <stop stop-color="#000000" stop-opacity="0" offset="100%"></stop>
        </linearGradient>
        <linearGradient x1="39.1791186%" y1="77.623762%" x2="56.2812044%" y2="37.8439189%" id="linearGradient-37">
            <stop stop-color="#000000" offset="0%"></stop>
            <stop stop-color="#000000" stop-opacity="0" offset="100%"></stop>
        </linearGradient>
        <linearGradient x1="51.6311852%" y1="93.2846264%" x2="48.886792%" y2="10.7278058%" id="linearGradient-38">
            <stop stop-color="#000000" offset="0%"></stop>
            <stop stop-color="#000000" stop-opacity="0" offset="100%"></stop>
        </linearGradient>
        <linearGradient x1="87.5873016%" y1="2.03900955%" x2="-99.7142857%" y2="240.953597%" id="linearGradient-39">
            <stop stop-color="#D7FF95" offset="0%"></stop>
            <stop stop-color="#51FCB7" offset="100%"></stop>
        </linearGradient>
        <linearGradient x1="44.4210526%" y1="57.2985141%" x2="-576.631579%" y2="873.312938%" id="linearGradient-40">
            <stop stop-color="#D7FF95" offset="0%"></stop>
            <stop stop-color="#51FCB7" offset="100%"></stop>
        </linearGradient>
    </defs>
    <g id="banner" stroke="none" stroke-width="1" fill="none" fill-rule="evenodd">
        <g id="2582524" transform="translate(-206.000000, -134.000000)" fill-rule="nonzero">
            <g id="Group" transform="translate(0.000000, 0.993409)">
                <ellipse id="Oval" fill="url(#linearGradient-1)" cx="1033.50717" cy="194.605961" rx="33.4293033" ry="32.2489878"></ellipse>
                <ellipse id="Oval" fill="url(#linearGradient-2)" cx="894.123975" cy="232.971136" rx="20.9641393" ry="20.5726301"></ellipse>
                <path d="M912.821721,144.008411 C912.821721,149.842926 917.641541,154.572734 923.58709,154.572734 C929.532639,154.572734 934.352459,149.842926 934.352459,144.008411 C934.352459,138.173896 929.532639,133.444087 923.58709,133.444087 C917.641541,133.444087 912.821721,138.173896 912.821721,144.008411 L912.821721,144.008411 Z" id="Path" fill="url(#linearGradient-3)"></path>
                <ellipse id="Oval" fill="url(#linearGradient-4)" cx="466.342213" cy="769.52757" rx="10.1987705" ry="10.0083065"></ellipse>
                <g transform="translate(578.528689, 657.212130)" id="Path">
                    <path d="M178.399064,187.727806 C173.889516,181.44849 175.472397,172.818048 181.938712,168.428371 C182.231649,168.21551 182.548996,168.049951 182.866344,167.860741 C180.052738,159.666784 176.718278,151.649439 172.882096,143.854704 L136.265048,139.881291 L166.803666,132.431142 C158.332827,117.615919 148.268166,103.710439 136.777686,90.9468183 L106.873764,125.335762 L124.86494,78.5299027 C106.136259,60.2808763 85.250317,44.2368671 62.6403694,30.7306906 L57.9533872,73.8469517 C57.9533872,73.8469517 56.7816417,47.7123008 56.2201803,26.9464878 C49.1897071,22.902121 42.5254043,19.3544308 36.3981516,16.279766 L32.6143899,26.0950421 L30.5150125,13.3943113 C20.7086019,8.59040675 10.6265031,4.33410543 0.318153478,0.646278015 C0.611089863,11.7860251 1.44107629,22.4527469 2.75929002,32.7410484 L13.9396954,38.7957729 L3.54045371,38.7957729 C4.61455379,46.3641786 5.98159026,53.6960716 7.49509491,60.8151032 C27.2683009,68.4308114 51.4355527,78.2224362 51.4355527,78.2224362 L9.08183367,67.8868322 C15.1351836,93.3270222 24.8482236,117.816887 37.9360676,140.638132 L84.3176619,140.401619 L46.0162296,153.906493 C54.666133,167.006751 64.4670585,179.359144 75.3098681,190.826122 L88.467594,172.117969 L82.0229936,197.708641 C90.3761409,206.000426 99.2459568,213.788408 108.582559,221.028791 C114.999215,220.996558 120.641729,225.135447 122.350569,231.127882 C160.26142,257.286184 192.313543,266.793994 192.313543,266.793994 C195.561563,242.385575 194.737329,217.629924 189.872406,193.475064 C185.319237,193.447826 181.054393,191.311469 178.399064,187.727806 Z" fill="#10AC7A"></path>
                    <path d="M178.399064,187.727806 C173.889516,181.44849 175.472397,172.818048 181.938712,168.428371 C182.231649,168.21551 182.548996,168.049951 182.866344,167.860741 C180.052738,159.666784 176.718278,151.649439 172.882096,143.854704 L136.265048,139.881291 L166.803666,132.431142 C158.332827,117.615919 148.268166,103.710439 136.777686,90.9468183 L106.873764,125.335762 L124.86494,78.5299027 C106.136259,60.2808763 85.250317,44.2368671 62.6403694,30.7306906 L57.9533872,73.8469517 C57.9533872,73.8469517 56.7816417,47.7123008 56.2201803,26.9464878 C49.1897071,22.902121 42.5254043,19.3544308 36.3981516,16.279766 L32.6143899,26.0950421 L30.5150125,13.3943113 C20.7086019,8.59040675 10.6265031,4.33410543 0.318153478,0.646278015 C0.611089863,11.7860251 1.44107629,22.4527469 2.75929002,32.7410484 L13.9396954,38.7957729 L3.54045371,38.7957729 C4.61455379,46.3641786 5.98159026,53.6960716 7.49509491,60.8151032 C27.2683009,68.4308114 51.4355527,78.2224362 51.4355527,78.2224362 L9.08183367,67.8868322 C15.1351836,93.3270222 24.8482236,117.816887 37.9360676,140.638132 L84.3176619,140.401619 L46.0162296,153.906493 C54.666133,167.006751 64.4670585,179.359144 75.3098681,190.826122 L88.467594,172.117969 L82.0229936,197.708641 C90.3761409,206.000426 99.2459568,213.788408 108.582559,221.028791 C114.999215,220.996558 120.641729,225.135447 122.350569,231.127882 C160.26142,257.286184 192.313543,266.793994 192.313543,266.793994 C195.561563,242.385575 194.737329,217.629924 189.872406,193.475064 C185.319237,193.447826 181.054393,191.311469 178.399064,187.727806 Z" fill="url(#linearGradient-5)" opacity="0.62" style="mix-blend-mode: overlay;"></path>
                </g>
                <g transform="translate(503.737705, 750.622991)" id="Path">
                    <path d="M158.174979,90.5508948 C153.854155,87.2388915 153.141103,81.1954988 156.580852,77.0400517 C156.732104,76.835458 156.904669,76.6461773 157.095877,76.4751384 C153.508504,71.5432989 149.609906,66.8268661 145.421961,62.3523058 L119.989501,66.753922 L138.971877,55.9028789 C130.233003,47.6788084 120.605686,40.3721248 110.253063,34.1066407 L97.27932,62.7995288 L99.7318234,28.2456651 C83.3952266,19.719978 66.0668614,13.075476 48.1066272,8.45016149 L53.8454851,38.0139577 C53.8454851,38.0139577 47.6651766,20.8547161 43.0054201,7.1555685 C37.4627625,5.81389941 32.2389303,4.80176307 27.5055987,3.8602409 L26.990573,11.1334997 L22.9439425,3.08348511 C15.3681205,1.77005656 7.72013647,0.874143453 0.0375608626,0.400146923 C2.49006425,7.74401986 5.31044314,14.6877459 8.25344719,21.2784011 L17.0088843,23.1614454 L10.0437747,25.2092561 C12.3246028,30.0580953 14.7525812,34.6244779 17.2541346,39.0967082 C31.9691549,40.3677631 50.3629303,42.2272694 50.3629303,42.2272694 L19.7802131,43.4983243 C29.0856731,59.2462332 40.6428993,73.6659892 54.1152604,86.3375831 L85.2620534,77.2518942 L62.3311468,93.5873038 C70.8138569,100.647753 79.9134658,106.995026 89.5294093,112.558976 L94.4344161,97.5887731 L95.3908924,115.854303 C102.705381,119.767475 110.265391,123.242067 118.027499,126.258123 C121.170549,125.353062 124.576015,125.976873 127.150811,127.929325 C128.022061,128.586329 128.768751,129.382595 129.358064,130.28313 C146.889612,136.217593 165.23345,139.65148 183.803639,140.475108 C180.981691,123.623538 175.359325,107.316029 167.151141,92.1750206 C164.061364,93.0564008 160.718289,92.4515127 158.174979,90.5508948 L158.174979,90.5508948 Z" fill="#10AC7A"></path>
                    <path d="M158.174979,90.5508948 C153.854155,87.2388915 153.141103,81.1954988 156.580852,77.0400517 C156.732104,76.835458 156.904669,76.6461773 157.095877,76.4751384 C153.508504,71.5432989 149.609906,66.8268661 145.421961,62.3523058 L119.989501,66.753922 L138.971877,55.9028789 C130.233003,47.6788084 120.605686,40.3721248 110.253063,34.1066407 L97.27932,62.7995288 L99.7318234,28.2456651 C83.3952266,19.719978 66.0668614,13.075476 48.1066272,8.45016149 L53.8454851,38.0139577 C53.8454851,38.0139577 47.6651766,20.8547161 43.0054201,7.1555685 C37.4627625,5.81389941 32.2389303,4.80176307 27.5055987,3.8602409 L26.990573,11.1334997 L22.9439425,3.08348511 C15.3681205,1.77005656 7.72013647,0.874143453 0.0375608626,0.400146923 C2.49006425,7.74401986 5.31044314,14.6877459 8.25344719,21.2784011 L17.0088843,23.1614454 L10.0437747,25.2092561 C12.3246028,30.0580953 14.7525812,34.6244779 17.2541346,39.0967082 C31.9691549,40.3677631 50.3629303,42.2272694 50.3629303,42.2272694 L19.7802131,43.4983243 C29.0856731,59.2462332 40.6428993,73.6659892 54.1152604,86.3375831 L85.2620534,77.2518942 L62.3311468,93.5873038 C70.8138569,100.647753 79.9134658,106.995026 89.5294093,112.558976 L94.4344161,97.5887731 L95.3908924,115.854303 C102.705381,119.767475 110.265391,123.242067 118.027499,126.258123 C121.170549,125.353062 124.576015,125.976873 127.150811,127.929325 C128.022061,128.586329 128.768751,129.382595 129.358064,130.28313 C146.889612,136.217593 165.23345,139.65148 183.803639,140.475108 C180.981691,123.623538 175.359325,107.316029 167.151141,92.1750206 C164.061364,93.0564008 160.718289,92.4515127 158.174979,90.5508948 L158.174979,90.5508948 Z" fill="url(#linearGradient-6)" opacity="0.62" style="mix-blend-mode: overlay;"></path>
                </g>
                <g transform="translate(1251.647541, 639.419585)" id="Path">
                    <path d="M68.053543,247.195394 C70.9794203,240.095778 79.2423944,236.654078 86.5144898,239.506027 C86.8566933,239.63127 87.1887368,239.78154 87.5077954,239.955559 C93.0064186,233.168781 98.071385,226.057416 102.673875,218.661925 L86.1753123,186.745134 L109.190928,207.447278 C117.281078,192.460392 123.721079,176.677955 128.402911,160.364688 L82.7350834,154.922982 L132.64263,143.921271 C138.08153,118.745569 140.46412,93.0317295 139.741131,67.3115088 L100.226952,87.1145881 C100.226952,87.1145881 122.03122,71.8778103 139.498861,60.0480138 C139.135456,52.1220501 138.578236,44.7875763 137.875654,38.1392307 L127.385379,40.50519 L137.076164,31.8221194 C135.874624,21.2386057 134.046465,10.7319294 131.600871,0.354860704 C122.225035,6.69563162 113.527555,13.2256793 105.387295,19.8503653 L106.259466,32.247992 L100.541902,23.8251769 C94.6062959,28.8410106 89.0583211,33.9278231 83.8010698,39.0856144 C87.9923347,59.2909068 92.7650466,84.275437 92.7650466,84.275437 L78.7376343,44.2670653 C60.2118421,63.1074717 44.4883135,84.3962242 32.0280469,107.509157 L57.4905865,145.056931 L25.0991351,121.397338 C18.5437708,135.544957 13.2585975,150.221698 9.30315432,165.262224 L32.4641323,165.711756 L7.02581967,174.489465 C4.4566802,185.803802 2.59583192,197.260498 1.45361786,208.795875 C4.95754712,213.985341 4.48165534,220.820993 0.290723573,225.499547 C-1.55052572,270.452774 7.70417467,301.754416 7.70417467,301.754416 C30.3985673,291.069649 51.1910097,276.898931 69.2891181,259.782298 C66.8163524,256.028956 66.3559854,251.33916 68.053543,247.195394 Z" fill="#10AC7A"></path>
                    <path d="M68.053543,247.195394 C70.9794203,240.095778 79.2423944,236.654078 86.5144898,239.506027 C86.8566933,239.63127 87.1887368,239.78154 87.5077954,239.955559 C93.0064186,233.168781 98.071385,226.057416 102.673875,218.661925 L86.1753123,186.745134 L109.190928,207.447278 C117.281078,192.460392 123.721079,176.677955 128.402911,160.364688 L82.7350834,154.922982 L132.64263,143.921271 C138.08153,118.745569 140.46412,93.0317295 139.741131,67.3115088 L100.226952,87.1145881 C100.226952,87.1145881 122.03122,71.8778103 139.498861,60.0480138 C139.135456,52.1220501 138.578236,44.7875763 137.875654,38.1392307 L127.385379,40.50519 L137.076164,31.8221194 C135.874624,21.2386057 134.046465,10.7319294 131.600871,0.354860704 C122.225035,6.69563162 113.527555,13.2256793 105.387295,19.8503653 L106.259466,32.247992 L100.541902,23.8251769 C94.6062959,28.8410106 89.0583211,33.9278231 83.8010698,39.0856144 C87.9923347,59.2909068 92.7650466,84.275437 92.7650466,84.275437 L78.7376343,44.2670653 C60.2118421,63.1074717 44.4883135,84.3962242 32.0280469,107.509157 L57.4905865,145.056931 L25.0991351,121.397338 C18.5437708,135.544957 13.2585975,150.221698 9.30315432,165.262224 L32.4641323,165.711756 L7.02581967,174.489465 C4.4566802,185.803802 2.59583192,197.260498 1.45361786,208.795875 C4.95754712,213.985341 4.48165534,220.820993 0.290723573,225.499547 C-1.55052572,270.452774 7.70417467,301.754416 7.70417467,301.754416 C30.3985673,291.069649 51.1910097,276.898931 69.2891181,259.782298 C66.8163524,256.028956 66.3559854,251.33916 68.053543,247.195394 Z" fill="url(#linearGradient-7)" opacity="0.62" style="mix-blend-mode: overlay;"></path>
                </g>
                <g transform="translate(1359.301230, 745.062821)" id="Path">
                    <path d="M34.4632486,104.121973 C36.6656631,101.262226 40.8043648,100.697035 43.7145781,102.858588 L44.1020683,103.192313 C47.4003215,100.784823 50.5464392,98.1817155 53.5229249,95.3974672 L50.083949,78.9973029 L57.8579719,91.0828891 C63.3731521,85.2499332 68.2440407,78.8575043 72.388856,72.0129306 L52.5784174,64.0988979 L76.3121947,65.0762332 C81.8823442,54.3496545 86.1421179,43.0114557 89.0025002,31.2985693 L68.8287894,35.5416351 C68.8287894,35.5416351 80.4777148,31.2508944 89.8016988,27.985164 C90.6251156,24.3618719 91.2790054,20.9769543 91.7875863,17.8780861 L86.7986494,17.6873865 L92.247731,14.9222425 C93.026394,9.99618865 93.5115858,5.02951374 93.7008194,0.0476748961 C88.7118825,1.78780861 84.0135633,3.69480445 79.5332074,5.72098754 L78.3707367,11.4419751 L76.869212,6.96053484 C73.5755449,8.50996896 70.4514048,10.1547529 67.4725736,11.8710491 C66.8429019,21.4060284 65.8741763,33.3247524 65.8741763,33.3247524 L64.4937423,13.563508 C53.8610059,19.8738909 44.1768774,27.6165545 35.7225918,36.5666453 L42.4552348,56.5901017 L30.8063094,42.1446082 C26.1135346,47.7656882 21.916644,53.770672 18.2613128,60.0942066 L28.6024586,63.0500502 L16.1058983,63.9797106 C13.5565477,68.793757 11.3002789,73.7527519 9.34903721,78.8304408 C10.0312441,80.8491765 9.65987698,83.0690998 8.35609346,84.7659653 C7.91598306,85.3475053 7.37485074,85.847851 6.75769621,86.2438871 C2.97132931,97.6695422 0.906988896,109.579793 0.630506752,121.594823 C12.135935,119.488608 23.2182716,115.560071 33.4460867,109.962148 C32.8209122,107.967068 33.1986583,105.798186 34.4632486,104.121973 L34.4632486,104.121973 Z" fill="#10AC7A"></path>
                    <path d="M34.4632486,104.121973 C36.6656631,101.262226 40.8043648,100.697035 43.7145781,102.858588 L44.1020683,103.192313 C47.4003215,100.784823 50.5464392,98.1817155 53.5229249,95.3974672 L50.083949,78.9973029 L57.8579719,91.0828891 C63.3731521,85.2499332 68.2440407,78.8575043 72.388856,72.0129306 L52.5784174,64.0988979 L76.3121947,65.0762332 C81.8823442,54.3496545 86.1421179,43.0114557 89.0025002,31.2985693 L68.8287894,35.5416351 C68.8287894,35.5416351 80.4777148,31.2508944 89.8016988,27.985164 C90.6251156,24.3618719 91.2790054,20.9769543 91.7875863,17.8780861 L86.7986494,17.6873865 L92.247731,14.9222425 C93.026394,9.99618865 93.5115858,5.02951374 93.7008194,0.0476748961 C88.7118825,1.78780861 84.0135633,3.69480445 79.5332074,5.72098754 L78.3707367,11.4419751 L76.869212,6.96053484 C73.5755449,8.50996896 70.4514048,10.1547529 67.4725736,11.8710491 C66.8429019,21.4060284 65.8741763,33.3247524 65.8741763,33.3247524 L64.4937423,13.563508 C53.8610059,19.8738909 44.1768774,27.6165545 35.7225918,36.5666453 L42.4552348,56.5901017 L30.8063094,42.1446082 C26.1135346,47.7656882 21.916644,53.770672 18.2613128,60.0942066 L28.6024586,63.0500502 L16.1058983,63.9797106 C13.5565477,68.793757 11.3002789,73.7527519 9.34903721,78.8304408 C10.0312441,80.8491765 9.65987698,83.0690998 8.35609346,84.7659653 C7.91598306,85.3475053 7.37485074,85.847851 6.75769621,86.2438871 C2.97132931,97.6695422 0.906988896,109.579793 0.630506752,121.594823 C12.135935,119.488608 23.2182716,115.560071 33.4460867,109.962148 C32.8209122,107.967068 33.1986583,105.798186 34.4632486,104.121973 L34.4632486,104.121973 Z" fill="url(#linearGradient-8)" opacity="0.62" style="mix-blend-mode: overlay;"></path>
                </g>
                <g transform="translate(426.568054, 746.174855)" id="Path">
                    <g transform="translate(240.160897, 0.000000)">
                        <path d="M106.217448,178.135572 C106.217448,178.135572 139.325134,59.3707227 0.511597799,0.000129306286 C0.511597799,0.000129306286 17.05326,144.108106 106.217448,178.135572 Z" fill="#F4A94E"></path>
                        <path d="M106.217448,178.135572 C106.217448,178.135572 139.325134,59.3707227 0.511597799,0.000129306286 C0.511597799,0.000129306286 17.05326,144.108106 106.217448,178.135572 Z" fill="url(#linearGradient-9)" style="mix-blend-mode: overlay;"></path>
                    </g>
                    <g transform="translate(0.000000, 109.366015)">
                        <path d="M243.425378,74.5906674 C243.425378,74.5906674 163.786654,-48.0549227 0.00227252203,21.5381084 C0.00227252203,21.5381084 141.934119,122.55567 243.425378,74.5906674 Z" fill="#F4A94E"></path>
                        <path d="M243.425378,74.5906674 C243.425378,74.5906674 163.786654,-48.0549227 0.00227252203,21.5381084 C0.00227252203,21.5381084 141.934119,122.55567 243.425378,74.5906674 Z" fill="url(#linearGradient-10)" style="mix-blend-mode: overlay;"></path>
                    </g>
                    <g transform="translate(868.695336, 5.248594)">
                        <path d="M5.84683199,170.49701 C5.84683199,170.49701 106.558513,124.614356 68.7002759,0.572645819 C68.7002759,0.572645819 -21.2922132,93.1661619 5.84683199,170.49701 Z" fill="#F4A94E"></path>
                        <path d="M5.84683199,170.49701 C5.84683199,170.49701 106.558513,124.614356 68.7002759,0.572645819 C68.7002759,0.572645819 -21.2922132,93.1661619 5.84683199,170.49701 Z" fill="url(#linearGradient-11)" style="mix-blend-mode: overlay;"></path>
                    </g>
                    <path d="M290.906526,200.213198 C290.906526,200.213198 15.6181863,200.213198 5.06952692,184.429944 C-5.47913247,168.646689 131.750887,168.670352 131.750887,168.670352 C131.750887,168.670352 71.6503262,147.373607 90.3358268,138.689267 C109.021327,130.004928 172.362007,135.542082 172.362007,135.542082 C172.362007,135.542082 113.893687,92.9485911 131.750887,77.1653365 C149.608086,61.3820819 216.213247,103.975573 216.213247,103.975573 C216.213247,103.975573 172.362007,55.0877106 192.655387,46.4033711 C212.948766,37.7190316 267.373027,48.7696761 290.906526,88.2159811 C290.906526,88.2159811 308.788087,39.304456 322.576866,42.4516417 C336.365645,45.5988274 338.022247,95.3148962 338.022247,95.3148962 C338.022247,95.3148962 384.309667,73.2136071 394.858327,78.7507609 C405.406986,84.2879147 390.789906,115.807098 390.789906,115.807098 C390.789906,115.807098 442.777987,107.146421 456.566766,117.392522 C470.355545,127.638623 428.160907,159.205132 428.160907,159.205132 C428.160907,159.205132 574.331707,159.205132 574.331707,181.282758 C574.331707,203.360384 290.906526,200.213198 290.906526,200.213198 Z" fill="#0CC380"></path>
                    <path d="M924.313325,200.213198 C924.313325,200.213198 649.024986,200.213198 638.476326,184.429944 C627.927667,168.646689 765.157686,168.670352 765.157686,168.670352 C765.157686,168.670352 705.057126,147.373607 723.742626,138.689267 C742.428127,130.004928 805.768807,135.542082 805.768807,135.542082 C805.768807,135.542082 747.300487,92.9485911 765.157686,77.1653365 C783.014886,61.3820819 849.620047,103.975573 849.620047,103.975573 C849.620047,103.975573 805.768807,55.0877106 826.062186,46.4033711 C846.355565,37.7190316 900.779827,48.7696761 924.313325,88.2159811 C924.313325,88.2159811 942.194887,39.304456 955.983665,42.4516417 C969.772444,45.5988274 971.429047,95.3148962 971.429047,95.3148962 C971.429047,95.3148962 1017.71647,73.2136071 1028.26513,78.7507609 C1038.81379,84.2879147 1024.19671,115.807098 1024.19671,115.807098 C1024.19671,115.807098 1076.18479,107.146421 1089.97357,117.392522 C1103.76234,127.638623 1061.56771,159.205132 1061.56771,159.205132 C1061.56771,159.205132 1207.73851,159.205132 1207.73851,181.282758 C1207.73851,203.360384 924.313325,200.213198 924.313325,200.213198 Z" fill="#0CC380"></path>
                    <g style="mix-blend-mode: overlay;" transform="translate(3.851437, 41.481457)" fill="url(#linearGradient-12)">
                        <path d="M287.055089,158.731742 C287.055089,158.731742 11.7667494,158.731742 1.21809,142.948487 C-9.33056939,127.165233 127.89945,127.188896 127.89945,127.188896 C127.89945,127.188896 67.7988893,105.89215 86.4843899,97.2078109 C105.16989,88.5234714 168.51057,94.0606252 168.51057,94.0606252 C168.51057,94.0606252 110.04225,51.4671345 127.89945,35.6838799 C145.756649,19.9006254 212.36181,62.494116 212.36181,62.494116 C212.36181,62.494116 168.51057,13.606254 188.80395,4.92191448 C209.097329,-3.76242501 263.52159,7.28821951 287.055089,46.7345245 C287.055089,46.7345245 304.93665,-2.17700063 318.725429,0.970185065 C332.514208,4.11737076 334.17081,53.8334396 334.17081,53.8334396 C334.17081,53.8334396 380.45823,31.7321505 391.00689,37.2693043 C401.555549,42.8064581 386.938469,74.3256412 386.938469,74.3256412 C386.938469,74.3256412 438.92655,65.6649648 452.715329,75.9110656 C466.504108,86.1571664 424.30947,117.723676 424.30947,117.723676 C424.30947,117.723676 570.48027,117.723676 570.48027,139.801302 C570.48027,161.878928 287.055089,158.731742 287.055089,158.731742 Z"></path>
                        <path d="M920.461888,158.731742 C920.461888,158.731742 645.173549,158.731742 634.624889,142.948487 C624.07623,127.165233 761.306249,127.188896 761.306249,127.188896 C761.306249,127.188896 701.205689,105.89215 719.891189,97.2078109 C738.57669,88.5234714 801.91737,94.0606252 801.91737,94.0606252 C801.91737,94.0606252 743.44905,51.4671345 761.306249,35.6838799 C779.163449,19.9006254 845.76861,62.494116 845.76861,62.494116 C845.76861,62.494116 801.91737,13.606254 822.210749,4.92191448 C842.504129,-3.76242501 896.92839,7.28821951 920.461888,46.7345245 C920.461888,46.7345245 938.34345,-2.17700063 952.132228,0.970185065 C965.921007,4.11737076 967.57761,53.8334396 967.57761,53.8334396 C967.57761,53.8334396 1013.86503,31.7321505 1024.41369,37.2693043 C1034.96235,42.8064581 1020.34527,74.3256412 1020.34527,74.3256412 C1020.34527,74.3256412 1072.33335,65.6649648 1086.12213,75.9110656 C1099.91091,86.1571664 1057.71627,117.723676 1057.71627,117.723676 C1057.71627,117.723676 1203.88707,117.723676 1203.88707,139.801302 C1203.88707,161.878928 920.461888,158.731742 920.461888,158.731742 Z"></path>
                    </g>
                </g>
                <g transform="translate(691.848361, 242.423425)">
                    <g transform="translate(491.969053, 52.470780)" id="Path">
                        <path d="M154.413121,447.580224 C154.947682,447.745546 158.786806,461.868802 157.304613,463.734583 C155.822419,465.600365 127.539251,467.560616 127.733637,465.435042 C128.2439,459.388966 144.086362,458.727677 144.086362,458.727677 L141.000484,452.162016 L154.413121,447.580224 Z" fill="#542B4D"></path>
                        <path d="M125.376706,447.745546 C125.88697,447.910868 129.750392,462.034125 128.2439,463.899906 C126.737408,465.765687 98.5028364,467.725938 98.6729241,465.600365 C99.2074858,459.577906 115.049948,458.892999 115.049948,458.892999 L111.891175,452.350956 L125.376706,447.745546 Z" fill="#542B4D"></path>
                        <path d="M169.283653,234.763064 C169.283653,234.763064 210.955159,245.03667 160.900755,454.783557 C160.900755,454.783557 145.835837,458.727677 137.452939,455.917196 L134.294166,310.976689 L130.090568,311.378186 L132.204516,455.444846 C132.204516,455.444846 120.298371,458.916616 110.84635,456.129753 C110.84635,456.129753 81.6884441,254.105784 86.3294107,248.909937 C90.9703774,243.714091 169.283653,234.763064 169.283653,234.763064 Z" fill="#005F91"></path>
                        <path d="M155.020577,33.0461217 L152.031892,18.4741333 C151.724113,16.9551178 151.902181,15.3809254 152.542155,13.9631936 C154.583208,9.42863642 159.394263,-0.207297578 162.941808,0.170582186 C167.558476,0.808254289 159.248473,17.7892262 159.248473,17.7892262 L167.36409,32.0778048 L155.020577,33.0461217 Z" fill="#F59E80"></path>
                        <path d="M25.5594755,74.0696937 L19.9708769,60.2534648 C19.389063,58.8076961 18.3837336,57.5595552 17.0793846,56.663607 C12.82719,53.9239787 3.35087064,48.2557822 0.629466106,50.5466783 C-2.89378084,53.5224815 13.5561376,63.4182078 13.5561376,63.4182078 L14.6981556,79.7142726 L25.5594755,74.0696937 Z" fill="#F59E80"></path>
                        <path d="M79.3315133,83.3749829 C79.3315133,83.3749829 66.3805435,61.7649838 77.4119512,55.4827327 C88.4433589,49.2004817 124.307583,73.3375516 120.468459,88.9959444 C116.629334,104.654337 105.063365,106.685441 105.063365,106.685441 L79.3315133,83.3749829 Z" fill="#542B4D"></path>
                        <path d="M102.90082,62.8750056 C101.379712,65.5574859 99.4825068,68.0215197 97.2636254,70.1964261 C90.7155223,74.3560154 82.7357183,75.8172113 75.0793188,74.2586335 C76.2362808,77.4059438 77.6585062,80.455076 79.3315133,83.3749829 L105.063365,106.685441 C105.063365,106.685441 116.629334,104.63072 120.468459,88.9959444 C122.485214,80.753442 113.49486,70.1491911 102.90082,62.8750056 Z" fill="url(#linearGradient-13)" style="mix-blend-mode: overlay;"></path>
                        <path d="M85.406077,105.457332 L91.6750268,131.743593 C91.6750268,131.743593 105.111962,135.829418 122.606705,127.185418 L109.412753,99.1750805 L85.406077,105.457332 Z" fill="#F59E80"></path>
                        <path d="M109.412753,99.1750805 L85.3817788,105.528184 L90.2414297,125.484959 C98.9159067,119.887615 105.743716,108.622075 109.412753,99.1750805 Z" fill="#E88D75"></path>
                        <path d="M92.8656413,67.8342404 C85.5752032,67.7799476 79.319107,72.8706322 78.0923023,79.8559776 C75.8568629,91.6647202 73.0382654,112.04661 80.254847,112.14108 C90.4115175,112.306402 101.51582,107.748228 105.889506,102.268971 C105.889506,102.268971 115.414422,100.450425 116.677931,91.3340754 C117.94144,82.2177261 109.16977,88.5944471 109.16977,88.5944471 C109.16977,88.5944471 107.347401,68.1889398 92.8656413,67.8342404 Z" fill="#F59E80"></path>
                        <path d="M26.4828092,69.0864043 C26.4828092,69.0864043 47.4765013,136.112828 103.143803,129.641637 C158.811105,123.170446 151.08426,26.5513133 151.08426,26.5513133 L166.489353,24.5202095 C166.489353,24.5202095 219.945514,112.967692 159.85593,156.778127 L181.894447,240.879992 C181.894447,240.879992 128.438286,271.157608 80.4006366,255.168571 L74.7877397,171.798848 C74.7877397,171.798848 9.32824132,184.056323 11.0777157,71.7787976 L26.4828092,69.0864043 Z" fill="#053F99"></path>
                        <path d="M113.567754,279.400111 L122.096442,317.188087 L142.579871,407.926466 L167.388389,517.724155 L188.843748,612.666446 L195.938838,644.101319 C197.056558,649.013756 197.979891,654.020662 199.291997,658.885864 L199.437787,659.547154 C200.579805,664.672148 208.695422,662.49934 207.529106,657.374345 L199.000418,619.586369 L178.492691,528.84799 L153.708471,419.050301 L132.253112,324.10801 L125.133724,292.673138 C124.040302,287.760701 123.116968,282.753794 121.804863,277.888592 L121.659073,277.227302 C120.492757,272.102308 112.401438,274.275116 113.567754,279.400111 L113.567754,279.400111 Z" fill="#FFB02A"></path>
                        <path d="M18.3428938,279.400111 L26.8958795,317.188087 L47.3793083,407.926466 L72.1878264,517.724155 L93.6431854,612.666446 L100.738276,644.101319 C101.855996,649.013756 102.755031,654.020662 104.067137,658.885864 C104.129817,659.103137 104.178508,659.323995 104.212926,659.547154 C105.379242,664.672148 113.49486,662.49934 112.328543,657.374345 L103.799856,619.586369 L83.2921289,528.84799 L58.3864177,419.050301 L36.955357,324.10801 L29.8359684,292.673138 C28.7425469,287.760701 27.8192132,282.753794 26.5071074,277.888592 L26.3613179,277.227302 C25.1950017,272.102308 17.1036828,274.275116 18.2457008,279.400111 L18.3428938,279.400111 Z" fill="#FFB02A"></path>
                        <path d="M160.900755,463.403939 L65.6758942,463.403939 C63.4845413,463.566228 61.7916587,465.341824 61.7916587,467.477955 C61.7916587,469.614086 63.4845413,471.389681 65.6758942,471.551971 L160.876456,471.551971 C163.067809,471.389681 164.760692,469.614086 164.760692,467.477955 C164.760692,465.341824 163.067809,463.566228 160.876456,463.403939 L160.900755,463.403939 Z" fill="#FFB02A"></path>
                        <path d="M137.793114,359.298064 L42.5925521,359.298064 C40.4011993,359.460353 38.7083167,361.235949 38.7083167,363.37208 C38.7083167,365.508211 40.4011993,367.283806 42.5925521,367.446096 L137.793114,367.446096 C139.984467,367.283806 141.67735,365.508211 141.67735,363.37208 C141.67735,361.235949 139.984467,359.460353 137.793114,359.298064 Z" fill="#FFB02A"></path>
                        <path d="M178.079621,541.932077 L82.8790585,541.932077 C80.5574757,541.932077 78.6754612,543.761364 78.6754612,546.017902 C78.6754612,548.274441 80.5574757,550.103727 82.8790585,550.103727 L178.079621,550.103727 C180.401204,550.103727 182.283219,548.274441 182.283219,546.017902 C182.283219,543.761363 180.401204,541.932077 178.079621,541.932077 L178.079621,541.932077 Z" fill="#FFB02A"></path>
                        <path d="M148.28996,195.369098 C126.032759,202.029229 98.9402049,203.98948 76.3671263,195.369098 L80.4006366,255.097718 C128.341093,271.086756 181.894447,240.80914 181.894447,240.80914 L167.169704,184.670377 C161.701601,189.462276 155.274054,193.104621 148.28996,195.369098 Z" fill="url(#linearGradient-14)" style="mix-blend-mode: overlay;"></path>
                    </g>
                    <g transform="translate(117.775929, 313.000520)">
                        <g>
                            <path d="M88.3947624,40.2441949 L135.800657,378.446584 C138.615333,398.305989 156.069814,413.104139 176.69462,413.117053 L376.693555,413.117053 C397.154656,413.097567 414.517682,398.52144 417.514623,378.848082 L468.346572,42.0627413 L88.3947624,40.2441949 Z" id="Path" fill="url(#linearGradient-15)"></path>
                            <path d="M19.0961397,40.2441949 L66.5020348,378.446584 C69.31544,398.297106 86.7561313,413.092357 107.371699,413.117053 L307.346336,413.117053 C327.807437,413.097567 345.170463,398.52144 348.167404,378.848082 L398.975055,42.0627413 L19.0961397,40.2441949 Z" id="Path" fill="url(#linearGradient-16)"></path>
                            <rect id="Rectangle" fill="url(#linearGradient-17)" x="80.2305488" y="0.991934382" width="409.279804" height="42.1808287" rx="8.93"></rect>
                            <rect id="Rectangle" fill="url(#linearGradient-18)" x="0.435080068" y="0.991934382" width="415.475858" height="42.1808287" rx="8.93"></rect>
                        </g>
                        <g transform="translate(117.157459, 142.816946)" id="Path">
                            <g transform="translate(44.496542, 0.000000)">
                                <polygon fill="url(#linearGradient-19)" points="48.0862462 19.5060306 20.7021131 59.9627829 0.971930191 48.8389473 31.5877312 0.163310145"></polygon>
                                <polygon fill="url(#linearGradient-20)" points="31.5877312 0.163310145 57.3924778 0.163310145 81.5206448 39.1085434 62.2035322 50.7755811"></polygon>
                                <polygon fill="url(#linearGradient-21)" points="97.0229313 29.5198444 45.972298 59.821078 90.2680165 72.0313179"></polygon>
                            </g>
                            <g transform="translate(85.803575, 76.825667)">
                                <polygon fill="url(#linearGradient-22)" points="68.375289 54.5327735 45.972298 11.289158 65.7267792 0.212557368 93.83986 50.2816262"></polygon>
                                <polygon fill="url(#linearGradient-23)" points="93.83986 50.2816262 80.9617849 72.0333301 34.1876445 72.9071771 33.4343986 50.8248283"></polygon>
                                <polygon fill="url(#linearGradient-24)" points="35.0137851 90.761996 33.4829951 32.6393647 0.485965096 63.8616802"></polygon>
                            </g>
                            <g transform="translate(0.000000, 66.128959)">
                                <polygon fill="url(#linearGradient-25)" points="22.6281122 61.6868593 72.3180432 65.0641597 72.0264642 87.2409784 13.3704771 85.1390222"></polygon>
                                <polygon fill="url(#linearGradient-26)" points="13.3704771 85.1390222 0.735384651 63.2692308 23.8430249 23.757178 43.7675939 34.4086638"></polygon>
                                <polygon fill="url(#linearGradient-27)" points="7.63608901 15.3021182 59.8287403 43.7375705 49.0889117 0.234162601"></polygon>
                            </g>
                        </g>
                    </g>
                    <g transform="translate(92.333368, 109.890147)">
                        <polygon id="Path" fill="#FF9F67" points="68.5939732 7.84100512 124.066889 0.0236174853 41.3070331 108.427875"></polygon>
                        <g transform="translate(55.126303, 0.000000)" id="Shape">
                            <path d="M68.9405858,0.0236174853 L0.346612575,88.9906846 L75.2824303,180.3195 L152.745267,93.100127 L68.9405858,0.0236174853 Z M104.586126,76.7095922 L74.6020792,44.8259871 C72.1955139,42.0326468 72.4807995,37.8922246 75.2490905,35.4357452 C78.0173816,32.9792659 82.2854548,33.0792056 84.9288375,35.6624028 L114.888586,67.5696254 C117.48527,70.3348637 117.284014,74.6225836 114.439068,77.1465157 C111.594122,79.6704478 107.18281,79.4748305 104.586126,76.7095922 L104.586126,76.7095922 Z" fill="#FF9F67"></path>
                            <path d="M68.9405858,0.0236174853 L0.346612575,88.9906846 L75.2824303,180.3195 L152.745267,93.100127 L68.9405858,0.0236174853 Z M104.586126,76.7095922 L74.6020792,44.8259871 C72.1955139,42.0326468 72.4807995,37.8922246 75.2490905,35.4357452 C78.0173816,32.9792659 82.2854548,33.0792056 84.9288375,35.6624028 L114.888586,67.5696254 C117.48527,70.3348637 117.284014,74.6225836 114.439068,77.1465157 C111.594122,79.6704478 107.18281,79.4748305 104.586126,76.7095922 L104.586126,76.7095922 Z" fill="url(#linearGradient-28)" style="mix-blend-mode: overlay;"></path>
                        </g>
                        <g transform="translate(0.000000, 7.085246)" id="Shape">
                            <path d="M68.5939732,0.755759529 L0.0242982548,89.6283567 L74.960116,180.957172 L152.422952,93.7141816 L68.5939732,0.755759529 Z M104.263811,77.4417343 L74.2797649,45.5581291 C72.5956643,43.7693336 72.02131,41.2431336 72.7730559,38.9311244 C73.5248018,36.6191151 75.4884396,34.8725458 77.924286,34.3493321 C80.3601325,33.8261185 82.8981244,34.6057492 84.5822249,36.3945448 L114.566271,68.3017675 C117.162955,71.0670058 116.961699,75.3547256 114.116754,77.8786577 C111.271808,80.4025899 106.860495,80.2069726 104.263811,77.4417343 L104.263811,77.4417343 Z" fill="#FF9F67"></path>
                            <path d="M68.5939732,0.755759529 L0.0242982548,89.6283567 L74.960116,180.957172 L152.422952,93.7141816 L68.5939732,0.755759529 Z M104.263811,77.4417343 L74.2797649,45.5581291 C72.5956643,43.7693336 72.02131,41.2431336 72.7730559,38.9311244 C73.5248018,36.6191151 75.4884396,34.8725458 77.924286,34.3493321 C80.3601325,33.8261185 82.8981244,34.6057492 84.5822249,36.3945448 L114.566271,68.3017675 C117.162955,71.0670058 116.961699,75.3547256 114.116754,77.8786577 C111.271808,80.4025899 106.860495,80.2069726 104.263811,77.4417343 L104.263811,77.4417343 Z" fill="url(#linearGradient-29)" style="mix-blend-mode: overlay;"></path>
                        </g>
                        <polygon id="Path" fill="#FF9F67" points="152.422952 100.823045 207.87157 93.0056571 130.408733 180.22503 74.960116 188.042418"></polygon>
                    </g>
                    <g transform="translate(358.854488, 126.422387)" id="Path">
                        <polygon fill="#FF7DB6" points="56.9615462 64.7119097 112.312971 30.4901735 143.536228 124.842027 90.9548047 168.912255"></polygon>
                        <polygon fill="#FF7DB6" points="64.8827773 7.20333301 112.312971 30.4901735 29.7960974 56.2804674"></polygon>
                        <polygon fill="url(#linearGradient-30)" style="mix-blend-mode: overlay;" points="64.8827773 7.20333301 112.312971 30.4901735 29.7960974 56.2804674"></polygon>
                        <polygon fill="#FF7DB6" points="0.662489887 74.9146633 19.080567 20.5708297 64.8827773 7.17971553 56.9615462 64.7119097"></polygon>
                        <polygon fill="url(#linearGradient-31)" style="mix-blend-mode: overlay;" points="56.9615462 64.7119097 112.312971 30.4901735 143.536228 124.842027 90.9548047 168.912255"></polygon>
                        <polygon fill="#FF7DB6" points="56.9615462 64.7119097 0.662489887 74.9146633 35.2632047 179.540123 90.9548047 168.912255"></polygon>
                        <polygon fill="url(#linearGradient-32)" style="mix-blend-mode: overlay;" points="56.9615462 64.7119097 0.662489887 74.9146633 35.2632047 179.540123 90.9548047 168.912255"></polygon>
                        <polygon fill="#FF7DB6" points="112.312971 30.4901735 56.9615462 64.7119097 63.4977768 17.4060867"></polygon>
                        <polygon fill="#FF7DB6" points="64.8827773 7.17971553 19.080567 20.5708297 17.5011805 14.3121961 62.8660221 0.307027309"></polygon>
                        <polygon fill="url(#linearGradient-33)" style="mix-blend-mode: overlay;" points="64.8827773 7.17971553 19.080567 20.5708297 17.5011805 14.3121961 62.8660221 0.307027309"></polygon>
                        <polygon fill="url(#linearGradient-34)" style="mix-blend-mode: overlay;" points="112.312971 30.4901735 56.9615462 64.7119097 63.4977768 17.4060867"></polygon>
                    </g>
                    <g transform="translate(269.710628, 0.000000)" id="Path">
                        <path d="M146.567073,29.1891996 C146.567073,29.1891996 126.545311,46.146554 127.274259,58.3095589 C127.930311,69.2444546 129.582593,107.599251 73.6966068,147.064069 C73.6966068,147.064069 64.754849,156.81809 63.7586205,167.941926 C63.4746302,170.807328 61.8619948,173.390522 59.3782827,174.958554 C56.8945706,176.526586 53.810829,176.908337 51.0020368,175.995488 C42.2856116,172.792106 33.9971082,168.581589 26.3150099,163.454603 C9.18474031,152.614178 2.89149232,143.049096 0.826140663,136.34173 C-0.791497061,131.475374 1.86860888,126.241412 6.82780959,124.532988 C13.2668471,122.289327 22.9618508,117.28242 26.7280803,106.583699 C38.5520472,73.9822651 63.0943198,47.2093892 95.0547727,32.0469153 C95.0547727,32.0469153 107.544076,29.0947296 110.945831,4.76871978 L146.567073,29.1891996 Z" fill="#63D9ED"></path>
                        <path d="M146.567073,29.1891996 C146.567073,29.1891996 126.545311,46.146554 127.274259,58.3095589 C127.930311,69.2444546 129.582593,107.599251 73.6966068,147.064069 C73.6966068,147.064069 64.754849,156.81809 63.7586205,167.941926 C63.4746302,170.807328 61.8619948,173.390522 59.3782827,174.958554 C56.8945706,176.526586 53.810829,176.908337 51.0020368,175.995488 C42.2856116,172.792106 33.9971082,168.581589 26.3150099,163.454603 C9.18474031,152.614178 2.89149232,143.049096 0.826140663,136.34173 C-0.791497061,131.475374 1.86860888,126.241412 6.82780959,124.532988 C13.2668471,122.289327 22.9618508,117.28242 26.7280803,106.583699 C38.5520472,73.9822651 63.0943198,47.2093892 95.0547727,32.0469153 C95.0547727,32.0469153 107.544076,29.0947296 110.945831,4.76871978 L146.567073,29.1891996 Z" fill="url(#linearGradient-35)" style="mix-blend-mode: overlay;"></path>
                        <path d="M147.271722,31.1966858 L109.973901,5.217452 C109.215375,4.6709386 108.978383,3.66940759 109.415041,2.85570347 L110.241182,1.39141938 C110.505796,0.919063821 110.967252,0.580676078 111.507199,0.463044325 C112.047145,0.345412573 112.613053,0.459980691 113.059779,0.777364762 L150.50339,27.2053308 C150.948712,27.5207066 151.233134,28.0068759 151.284275,28.5401165 C151.335417,29.0733572 151.148347,29.6022476 150.770671,29.9921941 L149.798741,31.0077459 C149.12997,31.6894087 148.039884,31.7709121 147.271722,31.1966858 L147.271722,31.1966858 Z" fill="#77DDEF"></path>
                        <path d="M147.247424,31.1966858 L109.973901,5.217452 C109.206099,4.67687447 108.967371,3.66800712 109.415041,2.85570347 L110.241182,1.41503687 C110.505796,0.942681307 110.967252,0.604293563 111.507199,0.48666181 C112.047145,0.369030058 112.613053,0.483598177 113.059779,0.800982248 L150.479092,27.2289483 C150.927925,27.5406262 151.217119,28.0249174 151.272928,28.5583233 C151.328736,29.0917292 151.145764,29.6226921 150.770671,30.0158116 L149.774442,31.0313634 C149.094315,31.6954181 148.012971,31.7661617 147.247424,31.1966858 L147.247424,31.1966858 Z" fill="url(#linearGradient-36)" style="mix-blend-mode: overlay;"></path>
                    </g>
                    <g transform="translate(0.000000, 357.136341)" id="Path">
                        <path d="M95.4192465,363.927091 C94.8846849,364.116031 91.0455607,378.097582 92.5277542,380.105068 C94.0099477,382.112554 122.293116,383.907483 122.09873,381.805527 C121.588467,375.759451 102.417144,375.664981 102.417144,375.664981 L102.781618,364.328588 L95.4192465,363.927091 Z" fill="#542B4D"></path>
                        <path d="M78.3861699,365.745637 C77.8516083,365.910959 74.0124841,380.034216 75.4946776,381.923614 C76.9768711,383.813013 105.26004,385.72603 105.065654,383.624073 C104.55539,377.577997 85.3840673,377.483527 85.3840673,377.483527 L85.7485411,366.147134 L78.3861699,365.745637 Z" fill="#542B4D"></path>
                        <g>
                            <path d="M117.65215,175.058061 L61.5960759,175.058061 C19.5843934,213.696267 75.6404671,370.114872 75.6404671,370.114872 L87.546612,369.831462 L86.7204713,228.622517 C88.2964322,229.101458 89.9774574,229.150476 91.5801223,228.764222 L91.7502101,369.831462 L103.656355,370.114872 C103.656355,370.114872 159.663832,213.696267 117.65215,175.058061 Z" fill="#005F91"></path>
                            <path d="M50.9777385,47.2166129 C50.9777385,47.2166129 45.0246661,41.430329 46.7741405,38.8796406 C48.5236148,36.3289522 54.8168628,40.2494547 54.8168628,40.2494547 C54.8168628,40.2494547 60.940023,-5.85187656 98.4079319,1.1152816 C135.875841,8.08243976 126.569609,42.9654655 134.272156,51.798405 C141.974703,60.6313445 192.733757,96.033955 134.976805,126.831156 C77.2198537,157.628357 -0.656052879,121.044872 0.753245898,107.937168 C2.16254468,94.8294632 29.4494848,101.654916 25.2458867,87.3663379 C21.0422886,73.0777593 5.29701954,66.6065683 17.3732522,55.3882628 C29.4494848,44.1699573 50.9777385,47.2166129 50.9777385,47.2166129 Z" fill="#053F99"></path>
                            <path d="M89.6119636,86.7286658 C64.1270906,82.8047381 40.9583574,70.0645939 24.3711495,50.8537056 C21.7936854,52.054396 19.4310442,53.6491505 17.3732522,55.5772027 C5.22412478,66.7955082 21.0422886,73.2666992 25.2458867,87.5552778 C29.4494848,101.843856 2.13824642,95.0420206 0.753245898,108.126107 C-0.631754624,121.210194 77.2198537,157.722827 134.976805,127.020096 C168.994362,108.929102 165.39822,89.2321192 155.168655,74.329486 C135.55618,85.9774178 112.287009,90.3784732 89.6119636,86.7286658 L89.6119636,86.7286658 Z" fill="url(#linearGradient-37)" style="mix-blend-mode: overlay;"></path>
                            <path d="M127.079873,152.881242 C127.079873,152.881242 87.0363486,105.906064 101.105038,95.3962829 C115.173728,84.8865019 134.49084,131.86168 134.49084,131.86168 L186.440509,128.626085 C186.440509,128.626085 211.006045,123.902588 213.168589,127.775855 C215.331134,131.649123 203.449287,141.946346 187.776913,137.222849 C187.67972,137.293702 136.313209,159.635843 127.079873,152.881242 Z" fill="#F59E80"></path>
                            <path d="M73.0162556,93.5777365 L73.5508172,57.7736288 L97.2902121,72.9124369 L99.282669,92.8928294 C99.282669,92.8928294 86.2588045,104.300075 73.0162556,93.5777365 Z" fill="#F59E80"></path>
                            <path d="M98.6752127,86.8467532 L97.2902121,72.9124369 L73.5508172,57.7736288 L73.4050277,67.8110601 C75.2998377,72.3389719 78.1563699,76.4272678 81.7879256,79.8087426 C85.7472,84.8839866 92.1633111,87.5579897 98.6752127,86.8467532 L98.6752127,86.8467532 Z" fill="#E88D75"></path>
                            <path d="M66.8202006,49.3421866 C66.8202006,49.3421866 67.52485,54.0656836 70.4892371,53.7822738 C73.4536242,53.498864 72.2387115,34.6284932 72.2387115,34.6284932 C75.6886888,30.2228899 80.7710714,27.2995691 86.404594,26.4804608 C86.404594,26.4804608 84.4850319,46.7914982 107.76276,48.2557822 C107.76276,48.2557822 110.654252,67.2914754 102.903109,73.9279888 C96.4397732,79.4544803 79.819767,79.5489502 71.9471324,60.8439019 C71.8985359,60.8439019 60.1624788,58.4585359 66.8202006,49.3421866 Z" fill="#F59E80"></path>
                            <path d="M51.8524757,108.622075 C51.8524757,108.622075 62.5194096,95.3490479 73.0162556,93.4832666 C81.7244684,92.3809603 90.5261775,92.1514523 99.282669,92.7983595 C99.282669,92.7983595 125.184609,100.804687 117.992325,132.097855 C117.992325,132.097855 112.063551,148.252215 117.992325,155.90428 C123.921099,163.556345 120.106273,181.600104 100.983547,179.899645 C87.8797522,178.928285 74.7332128,178.612968 61.5960759,178.954946 C59.6236327,178.998416 57.9597824,177.536685 57.8055481,175.62488 L51.8524757,108.622075 Z" fill="#542B4D"></path>
                            <path d="M118.526887,129.570784 C117.065037,130.402371 115.517735,131.083107 113.910218,131.601888 C94.3015268,139.230336 73.1134486,140.69462 54.1851082,134.766631 L57.8541446,175.71935 C58.0083789,177.631155 59.6722292,179.092886 61.6446724,179.049416 C74.7818093,178.707438 87.9283487,179.022755 101.032143,179.994115 C120.106273,181.694574 123.945398,163.674433 118.040922,155.99875 C112.136446,148.323067 118.040922,132.192325 118.040922,132.192325 C118.21101,131.294861 118.381097,130.421014 118.526887,129.570784 Z" fill="url(#linearGradient-38)" style="mix-blend-mode: overlay;"></path>
                            <path d="M41.865893,164.855307 C41.865893,164.855307 41.1855419,103.851343 58.8746713,104.300075 C76.5638008,104.748807 61.3044968,153.070182 61.3044968,153.070182 L103.777846,182.308629 C103.777846,182.308629 125.962153,193.668639 125.014521,197.967021 C124.066889,202.265404 108.224427,202.950311 99.1125813,189.795372 C99.0396865,189.795372 44.6844905,175.742968 41.865893,164.855307 Z" fill="#F59E80"></path>
                        </g>
                    </g>
                </g>
                <ellipse id="Oval" fill="url(#linearGradient-39)" cx="263.5" cy="787.876132" rx="38.5286885" ry="37.253141"></ellipse>
                <ellipse id="Oval" fill="url(#linearGradient-40)" cx="218.172131" cy="693.909254" rx="11.3319672" ry="11.1203406"></ellipse>
            </g>
        </g>
    </g>
</svg>