<?xml version="1.0" encoding="UTF-8"?>
<svg width="84px" height="77px" viewBox="0 0 84 77" version="1.1" xmlns="http://www.w3.org/2000/svg" xmlns:xlink="http://www.w3.org/1999/xlink">
    <title>logo</title>
    <g id="logo" stroke="none" stroke-width="1" fill="none" fill-rule="evenodd">
        <g id="Logo" fill="#3E4C57" fill-rule="nonzero">
            <path d="M2.76,76 L2.76,72.82 L3.252,72.82 L5.004,76 L7.32,76 L5.376,72.664 C6.672,72.28 7.248,71.284 7.248,70.228 C7.248,68.764 6.216,67.576 4.152,67.576 L0.708,67.576 L0.708,76 L2.76,76 Z M4.032,71.368 L2.76,71.368 L2.76,69.28 L4.032,69.28 C4.8,69.28 5.16,69.688 5.16,70.312 C5.16,70.972 4.8,71.368 4.032,71.368 Z M13.692,76 L13.692,74.356 L10.584,74.356 L10.584,72.508 L13.332,72.508 L13.332,70.924 L10.584,70.924 L10.584,69.22 L13.692,69.22 L13.692,67.576 L8.532,67.576 L8.532,76 L13.692,76 Z M18.912,76.06 C20.916,76.06 22.428,74.944 22.908,73.12 L20.652,73.12 C20.304,73.84 19.668,74.2 18.888,74.2 C17.628,74.2 16.764,73.264 16.764,71.776 C16.764,70.288 17.628,69.352 18.888,69.352 C19.668,69.352 20.304,69.712 20.652,70.432 L22.908,70.432 C22.428,68.608 20.916,67.48 18.912,67.48 C16.428,67.48 14.676,69.256 14.676,71.776 C14.676,74.296 16.428,76.06 18.912,76.06 Z M28.152,76.084 C30.54,76.084 32.46,74.296 32.46,71.764 C32.46,69.232 30.552,67.456 28.152,67.456 C25.764,67.456 23.82,69.232 23.82,71.764 C23.82,74.296 25.764,76.084 28.152,76.084 Z M28.152,74.212 C26.784,74.212 25.92,73.24 25.92,71.764 C25.92,70.264 26.784,69.316 28.152,69.316 C29.496,69.316 30.372,70.264 30.372,71.764 C30.372,73.24 29.496,74.212 28.152,74.212 Z M38.34,76 L38.34,74.416 L35.652,74.416 L35.652,67.576 L33.6,67.576 L33.6,76 L38.34,76 Z M41.376,76 L41.376,72.532 L44.568,72.532 L44.568,76 L46.62,76 L46.62,67.576 L44.568,67.576 L44.568,70.876 L41.376,70.876 L41.376,67.576 L39.324,67.576 L39.324,76 L41.376,76 Z M53.256,76 L53.256,74.356 L50.148,74.356 L50.148,72.508 L52.896,72.508 L52.896,70.924 L50.148,70.924 L50.148,69.22 L53.256,69.22 L53.256,67.576 L48.096,67.576 L48.096,76 L53.256,76 Z M64.836,76 L64.836,74.356 L61.728,74.356 L61.728,72.508 L64.476,72.508 L64.476,70.924 L61.728,70.924 L61.728,69.22 L64.836,69.22 L64.836,67.576 L59.676,67.576 L59.676,76 L64.836,76 Z M70.056,76.06 C72.06,76.06 73.572,74.944 74.052,73.12 L71.796,73.12 C71.448,73.84 70.812,74.2 70.032,74.2 C68.772,74.2 67.908,73.264 67.908,71.776 C67.908,70.288 68.772,69.352 70.032,69.352 C70.812,69.352 71.448,69.712 71.796,70.432 L74.052,70.432 C73.572,68.608 72.06,67.48 70.056,67.48 C67.572,67.48 65.82,69.256 65.82,71.776 C65.82,74.296 67.572,76.06 70.056,76.06 Z M79.296,76.084 C81.684,76.084 83.604,74.296 83.604,71.764 C83.604,69.232 81.696,67.456 79.296,67.456 C76.908,67.456 74.964,69.232 74.964,71.764 C74.964,74.296 76.908,76.084 79.296,76.084 Z M79.296,74.212 C77.928,74.212 77.064,73.24 77.064,71.764 C77.064,70.264 77.928,69.316 79.296,69.316 C80.64,69.316 81.516,70.264 81.516,71.764 C81.516,73.24 80.64,74.212 79.296,74.212 Z" id="RECOLHEECO"></path>
            <g id="Group" transform="translate(10.000000, 0.000000)">
                <g transform="translate(16.000000, 0.000000)" id="Path">
                    <polygon points="16.8215 7.60354839 7.242 22.5232258 0.34 18.4209677 11.05 0.470322581"></polygon>
                    <polygon points="11.05 0.470322581 20.077 0.470322581 28.5175 14.8325806 21.76 19.1351613"></polygon>
                    <polygon points="33.9405 11.2964516 16.082 22.4709677 31.5775 26.973871"></polygon>
                </g>
                <g transform="translate(30.000000, 28.000000)" id="Path">
                    <polygon points="24.5323077 19.5376923 16.494359 4.04461538 23.5820513 0.0761538462 33.6687179 18.0146154"></polygon>
                    <polygon points="33.6687179 18.0146154 29.0482051 25.8076923 12.2661538 26.1207692 11.9958974 18.2092308"></polygon>
                    <polygon points="12.5625641 32.5176923 12.0133333 11.6938462 0.174358974 22.88"></polygon>
                </g>
                <g transform="translate(0.000000, 24.000000)" id="Path">
                    <polygon points="8.38709677 22.3915789 25.5387097 23.5957895 25.4380645 31.5031579 5.1916129 30.7536842"></polygon>
                    <polygon points="5.1916129 30.7536842 0.830322581 22.9557895 8.80645161 8.86736842 15.683871 12.6652632"></polygon>
                    <polygon points="3.21225806 5.85263158 21.2277419 15.9915789 17.5206452 0.48"></polygon>
                </g>
            </g>
        </g>
    </g>
</svg>