<?xml version="1.0" encoding="UTF-8"?>
<svg width="594px" height="515px" viewBox="0 0 594 515" version="1.1" xmlns="http://www.w3.org/2000/svg" xmlns:xlink="http://www.w3.org/1999/xlink">
    <title>mapa</title>
    <defs>
        <polygon id="path-1" points="0.0761802839 0.297083428 575.401746 0.297083428 575.401746 282.62368 0.0761802839 282.62368"></polygon>
    </defs>
    <g id="mapa" stroke="none" stroke-width="1" fill="none" fill-rule="evenodd">
        <g id="Map-dark" transform="translate(8.000000, 9.000000)">
            <g id="Group-3" transform="translate(0.000000, 198.000000)">
                <mask id="mask-2" fill="white">
                    <use xlink:href="#path-1"></use>
                </mask>
                <g id="Clip-2"></g>
                <path d="M84.2655513,241.277656 C196.620043,296.404893 378.783607,296.406085 491.136829,241.278849 C603.490051,186.15042 603.490051,96.7707906 491.136829,41.6435542 C378.782338,-13.4848747 196.618773,-13.4848747 84.2655513,41.6423617 C-28.0889403,96.7695981 -28.0889403,186.15042 84.2655513,241.277656" id="Fill-1" fill="#F3F2EF" mask="url(#mask-2)"></path>
            </g>
            <path d="M235.791213,441.86319 L81.0771583,357.221093 C78.3076139,355.705347 78.3076139,353.248669 81.0771583,351.73173 L358.173627,200.13681 C360.945707,198.621063 365.438608,198.621063 368.208153,200.13681 L522.92094,284.778907 C525.69302,286.294653 525.69302,288.753716 522.92094,290.26827 L245.825739,441.86319 C243.054927,443.378937 238.562026,443.378937 235.791213,441.86319" id="Fill-4" fill="#DFDFDA"></path>
            <path d="M65.4729026,404.847541 C83.4367727,413.05082 112.562278,413.05082 130.526149,404.847541 C148.491284,396.649109 148.491284,383.3518 130.526149,375.149733 C112.562278,366.950089 83.4367727,366.950089 65.4729026,375.149733 C47.5090325,383.3518 47.5090325,396.649109 65.4729026,404.847541" id="Fill-5" fill="#DFDFDA"></path>
            <path d="M461.621287,242 C464.002933,234.548184 468.576199,212.064029 464.13215,195.941267 C460.714234,183.53786 452.270793,173.266437 442.54405,170.438489 C432.817308,167.610541 427.466206,179.090366 433.635682,186.836537 C449.388749,206.613108 456.073826,223.170846 452.539362,237.142555 L461.621287,242" id="Fill-6" fill="#00A497"></path>
            <path d="M463.808382,233 L460.655241,231.263149 C460.999819,228.272913 461.156906,225.376952 461.156906,222.581311 C461.156906,209.520481 457.714927,198.649752 453.728212,190.584333 C451.734221,186.552228 449.603412,183.221148 447.694298,180.662405 C445.782651,178.103662 444.102834,176.324508 442.966487,175.368454 C442.846138,175.266926 442.696652,175.217371 442.548433,175.217371 C442.372343,175.217371 442.197521,175.287473 442.072104,175.422844 C441.841541,175.673037 441.866878,176.054975 442.129112,176.276161 C443.151444,177.133104 444.798324,178.865121 446.661831,181.36343 C452.263756,188.868029 459.892609,203.300693 459.890075,222.581311 C459.890075,225.167853 459.753258,227.843837 459.455552,230.602009 L453.395035,227.263678 C452.65774,215.308776 445.891598,201.679874 433.63628,186.076014 C431.820912,183.763838 431.002539,181.124115 431,178.623388 C430.994938,173.524032 434.378643,169 439.609386,169 C440.532905,169 441.514699,169.141414 442.544632,169.444789 C452.271357,172.31295 460.714782,182.73043 464.132691,195.310211 C465.481865,200.276614 466,205.83768 466,211.386659 C466.001266,219.176503 464.9802,226.942173 463.808382,233" id="Fill-7" fill="#00A290"></path>
            <path d="M441.211888,177.047034 C442.221343,177.895051 443.847477,179.609026 445.687512,182.081312 C451.218872,189.507739 458.751629,203.790066 458.749127,222.869848 C458.749127,228.295242 458.141203,234.110557 456.705201,240.271537 C456.630148,240.593281 456.841546,240.913829 457.179281,240.985593 C457.517017,241.057358 457.851,240.854025 457.926053,240.531085 C459.382069,234.283988 460,228.380163 460,222.869848 C460,209.945066 456.601378,199.187571 452.664881,191.206165 C450.696007,187.21606 448.592039,183.919679 446.706973,181.387589 C444.819406,178.855499 443.160748,177.094877 442.038715,176.148782 C441.779784,175.931097 441.384509,175.955018 441.155599,176.202606 C440.92794,176.450193 440.952957,176.828153 441.211888,177.047034" id="Fill-8" fill="#FDFCFB"></path>
            <path d="M495.713004,259 C500.809619,258.430219 507.264303,256.925996 510.361111,251.110628 C513.457919,245.29526 504.303817,240.365153 504.477433,235.47343 C504.653622,230.580508 509.909708,228.424936 515.49245,226.445695 C521.076479,224.466455 526.569198,217.449149 521.938132,212.463862 C517.309639,207.477376 512.465089,201.192988 517.309639,195.010561 C522.152902,188.829334 530.65755,182.844831 522.810074,179.139453 C512.966648,174.492437 502.914883,185.308685 495.713004,189.187996 C488.511125,193.066108 479.546071,187.141582 472.962782,193.569914 C466.379493,199.997047 478.819453,208.258276 471.010558,214.957705 C463.199092,221.655934 452.49144,223.039003 457.12122,237.697377 L495.713004,259" id="Fill-9" fill="#00A497"></path>
            <path d="M516.089978,180.058262 C515.139326,180.486036 513.907799,181.324948 512.39794,182.541727 C507.13631,186.794511 498.637633,195.687454 490.886261,206.923646 C483.141243,218.157461 476.152426,231.723832 474.007104,245.318721 C473.954996,245.644305 474.195201,245.946123 474.542163,245.993653 C474.890397,246.041184 475.213212,245.816603 475.264049,245.492208 C477.662285,230.246824 486.342703,214.864791 495.282391,202.940596 C499.750964,196.977905 504.283083,191.876702 508.11238,188.086151 C510.026394,186.190875 511.76629,184.622371 513.227854,183.44124 C514.686876,182.260109 515.885359,181.463974 516.639017,181.130073 C516.955478,180.98867 517.088925,180.63338 516.937685,180.337503 C516.786445,180.041627 516.407709,179.916859 516.091249,180.058262" id="Fill-10" fill="#FDFCFB"></path>
            <path d="M481.176779,196.938094 C481.178103,196.939211 481.294547,197.044194 481.50891,197.247459 C482.261827,197.958887 484.18051,199.82848 486.101839,202.13364 C488.023167,204.436567 489.939203,207.18623 490.698737,209.586322 C490.794009,209.884519 491.156574,210.06098 491.509876,209.980567 C491.863179,209.900155 492.072249,209.59414 491.976976,209.297061 C491.014989,206.289407 488.557752,203.042749 486.346636,200.51087 C484.132873,197.983458 482.157292,196.188694 482.146706,196.178642 C481.897939,195.951924 481.479799,195.939638 481.211183,196.149604 C480.943891,196.359571 480.928012,196.712492 481.176779,196.938094" id="Fill-11" fill="#FDFCFB"></path>
            <path d="M513.451989,214.584946 C511.294546,214.26302 508.145948,214 504.662312,214 C501.226902,214 497.470413,214.254801 494.024849,214.972627 C490.580555,215.693193 487.440841,216.863085 485.235173,218.782312 C484.963589,219.020674 484.92044,219.452191 485.14126,219.746719 C485.362081,220.039877 485.761843,220.085084 486.033427,219.848092 C487.963703,218.154899 490.93336,217.008295 494.265975,216.317866 C497.597321,215.623328 501.286549,215.369897 504.662312,215.369897 C508.086301,215.369897 511.19175,215.630178 513.278124,215.942514 C513.624584,215.994571 513.945663,215.73292 513.993888,215.357568 C514.042113,214.983586 513.799718,214.637002 513.451989,214.584946" id="Fill-12" fill="#FDFCFB"></path>
            <polyline id="Fill-13" fill="#365158" points="296 393.993423 237.125682 409 98 333.006577 156.874318 318 296 393.993423"></polyline>
            <polyline id="Fill-14" fill="#365158" points="307 399.621589 234.502306 418 75 331.378411 147.497694 313 157.171517 318.248923 97.8563783 333.281235 238.023761 409.404978 297.338899 394.372666 307 399.621589"></polyline>
            <polyline id="Fill-15" fill="#293D42" points="365 338.197676 297.278981 396 157 319.801126 224.722292 262 365 338.197676"></polyline>
            <polyline id="Fill-16" fill="#293D42" points="374 342.167256 306.619933 399 297 393.833922 364.3788 337 374 342.167256"></polyline>
            <polyline id="Fill-17" fill="#293D42" points="225 261.167256 157.631016 318 148 312.833922 215.368984 256 225 261.167256"></polyline>
            <polyline id="Fill-18" fill="#293D42" points="501 264.455718 436.462891 318 297 242.543096 361.533312 189 501 264.455718"></polyline>
            <polyline id="Fill-19" fill="#293D42" points="519 264.034568 446.501431 324 436.839111 318.786648 501.700694 265.135244 361.532808 189.528568 296.675042 243.178784 287 237.965432 359.498569 178 519 264.034568"></polyline>
            <polyline id="Fill-20" fill="#365158" points="438 318.52477 365.728599 337 226 260.476433 298.27267 242 438 318.52477"></polyline>
            <polyline id="Fill-21" fill="#365158" points="298 244.109299 224.771207 262 215 256.889536 288.227508 239 298 244.109299"></polyline>
            <polyline id="Fill-22" fill="#365158" points="447 324.109299 373.761153 342 364 336.889536 437.238847 319 447 324.109299"></polyline>
            <polyline id="Fill-23" fill="#1A282B" points="361.891071 190 350 199.676465 354.910545 228 414 217.650948 361.891071 190"></polyline>
            <path d="M457,241.869586 C451.354768,251.231054 442.803079,258.137673 433.964471,263 L409,224.442703 L421.813249,222 L457,241.869586" id="Fill-24" fill="#1A282B"></path>
            <path d="M427,266.313535 C417.546665,270.106504 408.63462,271.840536 403.33203,271.975312 C400.176643,272.054733 397.200831,271.941618 394.393049,271.649203 L385,228.746052 L400.00733,226 L427,266.313535" id="Fill-25" fill="#1A282B"></path>
            <path d="M384,270 C372.144981,266.938281 364.449814,261.097369 360.032218,258.261186 L356,233.821996 L376.038414,230 L384,270" id="Fill-26" fill="#1A282B"></path>
            <path d="M465.982661,245 C451.731221,267.155589 419.496184,278.196644 404.244241,277.493837 C404.244241,277.493837 401.443851,277.896795 404.245514,279.400777 C407.044631,280.90713 433.260102,295 433.260102,295 L476.275367,286.926614 L503,264.899023 L465.982661,245" id="Fill-27" fill="#1A282B"></path>
            <polyline id="Fill-28" fill="#1A282B" points="465 294 439 299.087448 451.195132 306 465 294"></polyline>
            <polyline id="Fill-29" fill="#1A282B" points="350 256.015786 335.540035 264 297 242.693382 342.646358 204 350 256.015786"></polyline>
            <path d="M445,311.795314 L437.318898,318 L369.18178,282.135001 C368.319642,276.551718 370.620386,272.642252 374.047162,274.443387 C377.472657,276.256202 445,311.795314 445,311.795314" id="Fill-30" fill="#1A282B"></path>
            <path d="M360.604205,277 L345,268.80711 L354.647495,264 C357.885591,265.703572 365,269.595364 365,269.595364 C365,269.595364 359.910328,273.076723 360.604205,277" id="Fill-31" fill="#1A282B"></path>
            <polyline id="Fill-32" fill="#293D42" points="291 274.882059 263.353483 282 225 260.839142 255.43212 253 291 274.882059"></polyline>
            <polyline id="Fill-33" fill="#293D42" points="282 248 276.01626 258 266 252.007079 282 248"></polyline>
            <polyline id="Fill-34" fill="#293D42" points="335 264.181441 300.614084 273 282 261.596837 282 261.584765 292.160858 244.106998 296.47748 243 335 264.181441"></polyline>
            <path d="M437,319.326985 L419.057418,324 L419.047341,324 C418.411213,323.919766 400.94982,321.793569 396.072421,320.794292 C391.111884,319.782859 387.955179,318.668095 385.362801,313.995079 C382.759086,309.320849 370,282 370,282 L437,319.326985" id="Fill-35" fill="#293D42"></path>
            <polyline id="Fill-36" fill="#293D42" points="379 320 308 277.622085 343.500638 269 359.60202 277.622085 379 320"></polyline>
            <polyline id="Fill-37" fill="#293D42" points="360 316.764619 336.727932 322 272 286.785588 272.024061 286.764108 299.418161 280 360 316.764619"></polyline>
            <polyline id="Fill-38" fill="#293D42" points="386 332.338118 365.426088 338 346 326.553577 368.760913 321 386 332.338118"></polyline>
            <polyline id="Fill-39" fill="#293D42" points="403 326.913747 386 325 393.704217 329 403 326.913747"></polyline>
            <polyline id="Fill-40" fill="#1A282B" points="365 337.462272 337.448744 361 309 358.390395 314.911526 336.950609 345.76159 327 365 337.462272"></polyline>
            <polyline id="Fill-41" fill="#1A282B" points="235 304.097906 193.429342 337 157 317.586752 161.426889 313.887533 178.728754 314.306667 208.177134 299 235 304.097906"></polyline>
            <polyline id="Fill-42" fill="#1A282B" points="336 321.164593 311.938821 329 256 298.60577 271.258 286 336 321.164593"></polyline>
            <polyline id="Fill-43" fill="#1A282B" points="263 282.875016 241.302561 300 222 295.916844 223.705639 262 263 282.875016"></polyline>
            <polyline id="Fill-44" fill="#1A282B" points="216 269 214.785292 293.190761 205.707426 292.044047 201.920548 294 198 283.688916 216 269"></polyline>
            <polyline id="Fill-45" fill="#1A282B" points="192 299.556124 177.604364 307.740504 170 308 189.012134 291 192 299.556124"></polyline>
            <polyline id="Fill-46" fill="#1A282B" points="301 333.352215 253.417328 349 217 329.67244 247.572196 305 301 333.352215"></polyline>
            <polyline id="Fill-47" fill="#1A282B" points="305 341 289.84225 390 258.908195 373.34481 258.908195 373.334147 255 357.721536 305 341"></polyline>
            <polyline id="Fill-48" fill="#1A282B" points="329 367.913437 298 394 305.859654 366 329 367.913437"></polyline>
            <polyline id="Fill-49" fill="#1A282B" points="250 367.646806 249.84612 368 233 358.644599 246.76725 357 250 367.646806"></polyline>
            <polyline id="Fill-50" fill="#1A282B" points="243 352.293611 224.048154 355 224.035433 355 202 343.239383 210.91238 336 243 352.293611"></polyline>
            <polyline id="Fill-51" fill="#151F22" points="354.910545 228 350 199.676465 361.891071 190 414 217.650948 413.993535 217.652136 354.910545 228"></polyline>
            <path d="M433.964471,263 L409,224.442703 L421.813249,222 L457,241.869586 C451.354768,251.231054 442.803079,258.137673 433.964471,263" id="Fill-52" fill="#151F22"></path>
            <path d="M401.397752,272 C398.952968,272 396.619778,271.88207 394.393049,271.649819 L385,228.746089 L400.00733,226 L427,266.314079 C417.546665,270.1071 408.63462,271.841155 403.33203,271.975933 C402.679147,271.99278 402.035243,272 401.397752,272" id="Fill-53" fill="#151F22"></path>
            <path d="M384,270 C372.144981,266.938281 364.449814,261.097369 360.032218,258.261186 L356,233.821996 L376.038414,230 L384,270" id="Fill-54" fill="#151F22"></path>
            <path d="M433.260565,295 C433.260565,295 407.045268,280.90713 404.246169,279.400777 C403.310591,278.898265 402.998731,278.51901 403,278.235754 C403.00255,277.672798 404.244896,277.493837 404.244896,277.493837 C404.701866,277.51517 405.172838,277.525837 405.659084,277.525837 C421.411174,277.524652 452.159254,266.491893 465.982906,245 L503,264.899023 L476.275545,286.926614 L476.272999,286.926614 L433.260565,295" id="Fill-55" fill="#151F22"></path>
            <polyline id="Fill-56" fill="#151F22" points="451.195132 306 451.193853 305.998745 439 299.087448 465 294 451.195132 306"></polyline>
            <path d="M335.540035,264 L297,242.693382 L306.27259,234.83303 C307.989877,236.321797 309.07428,237.162113 309.07428,237.162113 L319.164928,242.626594 C319.772447,242.999393 320.457332,243.177899 321.134608,243.177899 C322.468867,243.177899 323.779027,242.484517 324.429669,241.209472 C327.980928,234.251366 335.292716,219.538555 341.110438,205.301761 L342.646358,204 L350,256.015786 L335.542572,263.998786 L335.540035,264" id="Fill-57" fill="#151F22"></path>
            <path d="M437.31891,318 L437.31891,318 L369.181907,282.135386 C369.058928,281.336448 369,280.572551 369,279.85304 C369.001281,276.392142 370.366865,274 372.428051,274 C372.930217,274 373.472095,274.141333 374.04728,274.443855 C377.47277,276.25665 445,311.795381 445,311.795381 L437.31891,318" id="Fill-58" fill="#151F22"></path>
            <path d="M360.604205,277 L345,268.80711 L354.647495,264 C357.885591,265.703572 365,269.595364 365,269.595364 C365,269.595364 360.544836,272.641553 360.539889,276.247729 C360.538652,276.496237 360.559678,276.746994 360.604205,277" id="Fill-59" fill="#151F22"></path>
            <polyline id="Fill-60" fill="#151F22" points="337.448744 361 309 358.390395 314.911526 336.950609 345.76159 327 365 337.462272 337.448744 361"></polyline>
            <polyline id="Fill-61" fill="#151F22" points="193.429342 337 157 317.586752 161.426889 313.887533 178.728754 314.306667 208.177134 299 235 304.097906 193.431894 336.997645 193.429342 337"></polyline>
            <polyline id="Fill-62" fill="#151F22" points="311.938821 329 256 298.60577 271.258 286 336 321.164593 311.938821 329"></polyline>
            <polyline id="Fill-63" fill="#151F22" points="241.302561 300 222 295.916844 223.705639 262 263 282.875016 241.302561 300"></polyline>
            <polyline id="Fill-64" fill="#151F22" points="201.920548 294 198.001298 283.690084 198 283.688916 216 269 214.785292 293.190761 205.707426 292.044047 201.920548 294"></polyline>
            <polyline id="Fill-65" fill="#151F22" points="170 308 189.012134 291 192 299.556124 177.604364 307.740504 170 308"></polyline>
            <polyline id="Fill-66" fill="#151F22" points="253.417328 349 217 329.67244 247.572196 305 301 333.352215 253.417328 349"></polyline>
            <polyline id="Fill-67" fill="#151F22" points="289.84225 390 258.908195 373.34481 258.908195 373.334147 255 357.721536 305 341 289.84352 389.996446 289.84225 390"></polyline>
            <polyline id="Fill-68" fill="#151F22" points="298 394 305.859654 366 329 367.913437 298 394"></polyline>
            <polyline id="Fill-69" fill="#151F22" points="249.84612 368 233 358.644599 246.76725 357 250 367.646806 249.84612 368"></polyline>
            <polyline id="Fill-70" fill="#151F22" points="224.048154 355 224.035433 355 202 343.239383 210.91238 336 243 352.293611 224.049426 354.998824 224.048154 355"></polyline>
            <polyline id="Fill-71" fill="#293D42" points="156 342.385501 121.680352 346 121.66748 346 98 333.774453 146.887222 322 156 342.385501"></polyline>
            <polyline id="Fill-72" fill="#293D42" points="193 338.52265 161.459199 342 152 320.20766 156.811975 319 193 338.52265"></polyline>
            <polyline id="Fill-73" fill="#293D42" points="223 354.81875 179.888707 378 179.877428 378 131 351.380332 201.291459 343 223 354.81875"></polyline>
            <polyline id="Fill-74" fill="#293D42" points="288 389.695395 278.228787 398.936175 242 408 256.863289 373 288 389.695395"></polyline>
            <polyline id="Fill-75" fill="#293D42" points="250 368.327484 233.401049 407 189 382.65512 232.983144 359 250 368.327484"></polyline>
            <path d="M311.775663,195.000435 C304.382215,199.113515 298.387832,195.779527 298.386583,187.555771 C302.367863,186.952215 312.374727,170.495083 311.775663,165.216971 C319.169111,161.105092 325.162246,164.43908 325.162246,172.662837 C325.162246,180.887795 319.169111,190.889759 311.775663,195.000435 M341,154.800213 L330.828393,149.17223 L330.827145,149.174634 C325.970983,146.045038 319.230265,146.178494 311.775663,150.325239 C296.98752,158.550197 285,179.431806 285,196.967403 L285,200.957849 C285,218.493446 309.471763,237.547553 309.471763,237.547553 L319.478627,243 C319.478627,243 313.468019,236.398151 314.153198,235.043155 C320.706708,222.084727 338.550078,185.489011 338.550078,171.174385 L338.550078,167.182737 C338.550078,163.983407 338.146958,161.120722 337.404368,158.621133 L338.551326,159.259557 L341,154.800213" id="Fill-76" fill="#00A497"></path>
            <path d="M319.72708,243 L309.703548,237.58728 C309.703548,237.58728 285,218.524883 285,200.981657 L285,196.989475 C285,179.446249 297.10106,158.555556 312.029269,150.327018 C316.12511,148.069313 320.006772,147 323.485275,147 C326.398097,147 329.027447,147.749361 331.261198,149.175913 L331.262458,149.173508 L341,154.514058 C339.014444,153.490453 336.760535,152.9576 334.305046,152.9576 C330.824023,152.9576 326.939841,154.026913 322.840221,156.285822 C312.147697,162.179672 302.906545,174.568787 298.522194,187.572545 C298.519674,187.572545 298.517154,187.572545 298.513375,187.573748 C298.513375,187.580965 298.513375,187.589385 298.513375,187.596602 C296.782312,192.739889 295.810952,197.978199 295.810952,202.948278 L295.810952,206.941663 C295.810952,220.450609 311.839029,236.12344 319.209274,242.617501 C319.373057,242.763043 319.546919,242.88934 319.72708,243 M316.80544,202.743798 C313.078742,202.743798 310.334743,200.362201 309.552363,196.137874 C310.354901,195.858818 311.182636,195.488348 312.029269,195.021651 C319.492744,190.909187 325.542644,180.902872 325.542644,172.674335 C325.542644,171.742144 325.465792,170.8725 325.317127,170.069012 C326.571959,169.633589 327.767576,169.423094 328.875003,169.423094 C333.309748,169.423094 336.353596,172.797023 336.353596,178.634341 C336.353596,186.861675 330.303696,196.86799 322.840221,200.981657 C320.671984,202.177267 318.620914,202.743798 316.80544,202.743798" id="Fill-77" fill="#009278"></path>
            <path d="M322.000629,200.242032 C314.545063,204.374358 308.500315,201.02379 308.500315,192.759138 C308.500315,184.493278 314.543804,174.442784 322.000629,170.310458 C329.456196,166.176924 335.499685,169.527491 335.499685,177.793352 C335.499685,186.058004 329.456196,196.109706 322.000629,200.242032 M349,172.284792 C349,154.6632 336.913021,147.078811 322.000629,155.343463 C307.088237,163.609324 295,184.595982 295,202.217573 L295,206.229071 C295,219.799292 311.011094,235.543212 318.373529,242.066729 C320.16946,243.658037 323.042697,243.148142 324.11497,241.040897 C330.47561,228.543632 349.001259,190.89355 349,176.29629 L349,172.284792" id="Fill-78" fill="#00A497"></path>
            <path d="M320.845293,243 C319.971869,243 319.087119,242.700344 318.373529,242.0672 C311.011094,235.543638 295,219.79961 295,206.229296 L295,202.217771 C295,184.596059 307.088237,163.609257 322.000629,155.34334 C326.095905,153.07417 329.975971,152 333.453306,152 C342.638101,152 349,159.502277 349,172.284785 L349,176.29631 C349.001259,190.89367 330.47561,228.54401 324.11497,241.041361 C323.469341,242.310066 322.169273,243 320.845293,243 M308.500315,192.759271 L308.500315,192.759271 C308.500315,198.623106 311.542196,202.012362 315.972242,202.012362 C317.785793,202.012362 319.834689,201.443257 322.000629,200.242216 C329.456196,196.109862 335.499685,186.058091 335.499685,177.793382 C335.499685,171.929547 332.459063,168.540292 328.029016,168.540292 C326.922763,168.540292 325.728413,168.751743 324.474911,169.189144 C323.671965,169.469467 322.845107,169.841621 322.000629,170.310438 C314.543804,174.442792 308.500315,184.493354 308.500315,192.759271" id="Fill-79" fill="#00ADA3"></path>
            <path d="M517.998732,384.128559 L518,384.128559 L518,373.405592 L433,355 L433,365.707449 L433.010141,365.718192 C433.021549,365.955738 433.140701,366.249387 433.40309,366.595558 L466.502095,410.29914 C467.315881,411.372272 468.187974,411.193218 468.452898,409.898058 L472.643512,389.391562 C472.908436,388.097596 474.254604,386.980297 475.652743,386.895545 L516.932699,384.401915 C517.636205,384.358942 517.991127,384.258671 517.998732,384.128559" id="Fill-80" fill="#00A497"></path>
            <path d="M467.550383,411 C467.22715,411 466.859552,410.770697 466.502095,410.298955 L433.40309,366.573811 C433.140701,366.227469 433.021549,365.933675 433.010141,365.696012 L433,365.685263 L433,355 C433.022816,355.230497 433.154645,355.517125 433.40309,355.844359 L466.502095,399.570697 C466.859552,400.04244 467.22715,400.271742 467.55165,400.271742 C467.964881,400.271742 468.304592,399.896737 468.452898,399.170612 L472.643512,378.653999 C472.908436,377.3582 474.254604,376.24035 475.652743,376.154361 L516.933967,373.659501 C517.631135,373.617701 517.987324,373.517381 518,373.390787 L518,384.115462 L517.998732,384.115462 C517.991127,384.245639 517.636205,384.345959 516.932699,384.388953 L475.652743,386.883813 C474.254604,386.968607 472.908436,388.086458 472.643512,389.381062 L468.452898,409.897675 C468.304592,410.624995 467.964881,411 467.550383,411" id="Fill-81" fill="#00A290"></path>
            <path d="M468.454504,399.896127 L472.644958,379.333306 C472.909872,378.034589 474.255989,376.914221 475.654075,376.828039 L516.933724,374.32756 C518.330542,374.242575 518.358428,373.926574 516.997101,373.621345 L434.401043,355.07782 C433.038449,354.771395 432.593545,355.397412 433.406032,356.472295 L466.503776,400.297113 C467.31753,401.373193 468.18959,401.193647 468.454504,399.896127" id="Fill-82" fill="#00A497"></path>
            <path d="M467.553905,401 C467.22942,401 466.861839,400.77018 466.504398,400.297372 L433.406874,356.472287 C433.130555,356.107208 433,355.794796 433,355.551808 C433.001268,355.20229 433.275052,355 433.782061,355 C433.959514,355 434.167387,355.025137 434.401879,355.077804 L516.997387,373.621442 C517.667906,373.771064 518.001264,373.924278 518,374.051158 C518,374.181629 517.642555,374.284569 516.934011,374.327661 L475.654636,376.828155 C474.25656,376.914338 472.910452,378.034712 472.64554,379.333437 L468.455113,399.896383 C468.306813,400.624148 467.967118,401 467.553905,401" id="Fill-83" fill="#32B4AB"></path>
            <path d="M253,47.5107234 L231.453473,35.7267609 L231.373774,35.6824197 L231.214376,35.5949358 L231.211846,35.6021263 C220.582799,29.8988945 205.963749,30.7773288 189.821564,39.606013 C157.334785,57.3736351 131,100.584693 131,136.119938 C131,153.778504 137.507476,166.210807 148.035318,172.079419 L148.030258,172.085411 L148.190921,172.172895 L148.269354,172.214839 L169.817147,184 L173.556669,174.676373 C178.724445,173.474368 184.17686,171.379548 189.822829,168.292444 C222.308343,150.524822 248.644393,107.313764 248.643128,71.7773212 C248.643128,65.6534477 247.844874,60.1743186 246.383728,55.3627037 L253,47.5107234" id="Fill-84" fill="#293D42"></path>
            <path d="M200.823005,47 C197.650414,47 194.555985,46.4569931 191.628129,45.3829397 C191.119438,45.1963559 190.869577,44.6605252 191.068185,44.1856932 C191.269355,43.7096651 191.842112,43.4776313 192.352085,43.6642152 C195.048018,44.6533489 197.897712,45.1544941 200.823005,45.1544941 C213.614594,45.1544941 224.022897,35.440172 224.022897,23.5 C224.022897,11.559828 213.614594,1.8455059 200.823005,1.8455059 C200.277155,1.8455059 199.835094,1.43286849 199.835094,0.923350977 C199.835094,0.412637419 200.277155,0 200.823005,0 C214.706294,0 226,10.541989 226,23.5 C226,36.458011 214.706294,47 200.823005,47" id="Fill-85" fill="#365158"></path>
            <path d="M211.000634,179.384063 C243.584343,161.604996 270,118.366103 270,82.8079687 C270,47.2486353 243.584343,32.8356711 210.999366,50.6159374 C178.414388,68.3950045 152,111.633897 152,147.192031 C152,182.751365 178.415657,197.164329 211.000634,179.384063" id="Fill-86" fill="#365158"></path>
            <path d="M254,84.4464037 C254,114.440614 230.597073,152.451507 202.898793,167.453387 C196.196056,171.076713 189.858692,173 184.55761,173 C178.847871,173 175.091029,170.510829 172.619991,167.028378 C168.614899,161.369543 168,153.098572 168,148.553596 C167.988547,118.56058 191.391473,80.5496873 219.089753,65.5478067 C225.793763,61.9232874 232.141312,60 237.429663,60 C237.764482,60 238.089116,60.0095508 238.402292,60.03104 C252.455761,60.7497359 254,77.2594451 254,84.4464037" id="Fill-87" fill="#1A282B"></path>
            <path d="M243,77.5053025 C243,107.482007 219.923491,145.472227 192.610053,160.456404 C185.999189,164.088497 179.739833,166 174.523703,166 C174.194792,166 173.874669,165.990454 173.555801,165.97017 C169.606356,160.314413 169,152.04794 169,147.505436 C168.988706,117.528732 192.06647,79.5385113 219.379908,64.5447895 C225.990772,60.9222414 232.250128,59 237.465002,59 C237.795169,59 238.115292,59.0095456 238.424117,59.0310231 C242.393648,64.6855868 243,72.9616058 243,77.5053025" id="Fill-88" fill="#ECECE8"></path>
            <path d="M204,106.125958 L193.566712,101.054271 C192.745419,100.655983 191.613499,102.550391 192.13038,103.458668 L198.697002,115 L204,106.125958" id="Fill-89" fill="#00A497"></path>
            <path d="M203,118.875006 L213.43282,123.945471 C214.255319,124.34488 215.387187,122.449379 214.869087,121.541118 L208.30276,110 L203,118.875006" id="Fill-90" fill="#00A497"></path>
            <path d="M209,106.192905 L206.727855,81.0525162 C206.549567,79.0734758 204.201407,80.0994677 203.748084,82.3547366 L198,111 L209,106.192905" id="Fill-91" fill="#00A497"></path>
            <path d="M198,118.808244 L200.272145,143.94839 C200.450433,145.926216 202.799975,144.900234 203.251916,142.644987 L209,114 L198,118.808244" id="Fill-92" fill="#00A497"></path>
            <path d="M199,106 L180.206743,120.165454 C178.727423,121.28019 178.554468,124.285235 179.987176,123.978089 L198.186742,120.076512 L199,106" id="Fill-93" fill="#00A497"></path>
            <path d="M205,118 L223.792622,103.83561 C225.271893,102.719678 225.446069,99.7157935 224.013409,100.021756 L205.814457,103.923367 L205,118" id="Fill-94" fill="#00A497"></path>
            <path d="M199.494504,145 C199.079243,145 198.74754,144.680012 198.68677,143.953199 L197.151062,125.493811 L198.68677,143.953199 C198.74754,144.680012 199.079243,145 199.494504,145 C200.203487,145 201.15555,144.070964 201.416355,142.656593 L205.355009,121.338723 L205.356276,121.338723 L201.416355,142.656593 C201.15555,144.070964 200.203487,145 199.494504,145 M180,121.00565 L194.664557,110.262853 L180,121.00565 M198.417103,103.614475 L192.126144,100.450281 L198.417103,103.613286 L202.355758,82.2954165 L198.417103,103.614475 M210.324222,102.97093 L210.324222,102.97093 L224,100.121966 L210.324222,102.97093 M206.621051,99.4403554 L205.085343,81 L206.621051,99.4403554" id="Fill-95" fill="#9D9D9A"></path>
            <path d="M195.669663,110 L195.669663,110 L192.117978,102.62625 C192.035955,102.45631 192,102.253827 192,102.036881 C192.001124,101.13535 192.632584,100 193.203371,100 C193.275281,100 193.347191,100.018079 193.416854,100.057852 L199,103.26383 L198.498876,106.36013 C198.092135,107.051946 197.716854,107.794384 197.380899,108.569362 L195.669663,110" id="Fill-96" fill="#009278"></path>
            <path d="M213.797753,125 C213.724719,125 213.652809,124.981921 213.583146,124.942148 L208.001124,121.73617 L208,121.737375 L208.502247,118.63987 C208.908989,117.948054 209.28427,117.205616 209.619101,116.430638 L211.330337,115 L214.882022,122.37375 C214.964045,122.54369 215,122.746173 215,122.963119 C215,123.863445 214.367416,125 213.797753,125" id="Fill-97" fill="#009278"></path>
            <path d="M200,106 L204.108576,81.367008 C204.347675,79.937667 205.215131,79 205.861969,79 C206.240832,79 206.543459,79.3221728 206.598903,80.0578807 L208,98.6934105 L206.429108,101.037578 C206.394456,101.036376 206.358649,101.035174 206.322841,101.035174 C205.676003,101.035174 204.972567,101.221505 204.231014,101.610997 C202.676292,102.428451 201.202426,104.012867 200,106" id="Fill-98" fill="#009278"></path>
            <path d="M200.137722,145 C199.758914,145 199.45633,144.67664 199.400895,143.942166 L198,125.288233 L199.557962,122.962201 C199.597228,122.963403 199.636495,122.964605 199.676916,122.964605 C200.323661,122.964605 201.026996,122.779484 201.768442,122.388807 C203.322939,121.572592 204.796593,119.988246 206,118 L201.890862,142.631895 C201.652952,144.061173 200.784467,145 200.137722,145" id="Fill-99" fill="#009278"></path>
            <path d="M180.823989,125 C180.266998,125 180,124.430005 180,123.693183 C180,122.754145 180.435628,121.547171 181.257062,120.913984 L198,108 C196.902626,110.338116 196.177005,112.966917 196.033925,115.503457 C196.01604,115.809308 196.007097,116.108839 196.007097,116.399524 C196.007097,117.210914 196.073527,117.962902 196.198722,118.649171 L194.812633,121.952866 L181.028389,124.977251 C180.955571,124.992417 180.887864,125 180.823989,125" id="Fill-100" fill="#009278"></path>
            <path d="M209,116 C210.097374,113.661884 210.822995,111.033083 210.967353,108.496543 C210.98396,108.190692 210.992903,107.892424 210.992903,107.60174 C210.992903,106.781503 210.925195,106.021931 210.797445,105.330607 L212.173314,102.049662 L225.972889,99.0227492 C226.044429,99.0075831 226.112136,99 226.176011,99 C226.733002,99 227,99.5712586 227,100.306817 C227,101.245855 226.564372,102.452829 225.742938,103.08728 L209,116" id="Fill-101" fill="#009278"></path>
            <path d="M208.788351,110 L217.764701,88.9812787 C218.472345,87.3255421 217.450059,86.2576271 216.46876,87.6253077 L204,104.994149 L208.788351,110" id="Fill-102" fill="#00A497"></path>
            <path d="M198.211836,114 L189.23463,135.019857 C188.528219,136.67442 189.550466,137.742333 190.531726,136.374655 L203,119.004672 L198.211836,114" id="Fill-103" fill="#00A497"></path>
            <path d="M196.024693,116.527664 C196.345387,110.77499 199.729132,104.532752 203.581113,102.584265 C207.434314,100.635779 210.296169,103.719661 209.975476,109.472336 C209.653563,115.22501 206.271038,121.468469 202.417837,123.415735 C198.565855,125.364221 195.70278,122.280339 196.024693,116.527664" id="Fill-104" fill="#ECECE8"></path>
            <path d="M196.024693,116.527664 C196.345387,110.77499 199.729132,104.532752 203.581113,102.584265 C207.434314,100.635779 210.296169,103.719661 209.975476,109.472336 C209.653563,115.22501 206.271038,121.468469 202.417837,123.415735 C198.565855,125.364221 195.70278,122.280339 196.024693,116.527664" id="Fill-105" fill="#00A497"></path>
            <path d="M200.210242,124 C200.167567,124 200.12611,123.998779 200.084654,123.997558 C198.12524,123.930415 196.675492,122.292104 196.182895,119.566062 C196.063404,118.903169 196,118.176794 196,117.393041 C196,117.112258 196.008535,116.822929 196.025605,116.527496 C196.346281,110.775096 199.729838,104.533156 203.581606,102.584762 C204.364396,102.189224 205.10695,102 205.789758,102 C208.2942,102 210,104.528273 210,108.608179 C210,108.888963 209.991465,109.177071 209.975614,109.472504 C209.653719,115.224904 206.271381,121.468065 202.418394,123.415238 C201.635604,123.811997 200.89305,124 200.210242,124" id="Fill-106" fill="#006755"></path>
            <path d="M200.014067,114.585003 C200.197676,111.185834 202.130972,107.497065 204.332121,106.345373 C206.533269,105.193681 208.16955,107.016262 207.985941,110.41543 C207.802332,113.814599 205.869037,117.503368 203.666808,118.65506 C201.465659,119.805634 199.830458,117.984171 200.014067,114.585003" id="Fill-107" fill="#00A497"></path>
            <path d="M214,35.8899591 L207.539239,35.8899591 C203.789817,34.703347 199.210183,34.703347 195.460761,35.8899591 L189,35.8899591 L189,44.4124545 L189.035929,44.4124545 C188.828055,46.3850542 190.027819,48.3970804 192.660884,49.9041923 C197.543345,52.6983906 205.457938,52.6983906 210.339116,49.9054641 C212.973464,48.3983522 214.173228,46.3850542 213.964071,44.4124545 L214,44.4124545 L214,35.8899591" id="Fill-108" fill="#DFDFDA"></path>
            <path d="M214,35.8899591 L207.539239,35.8899591 C203.789817,34.703347 199.210183,34.703347 195.460761,35.8899591 L189,35.8899591 L189,44.4124545 L189.035929,44.4124545 C188.828055,46.3850542 190.027819,48.3970804 192.660884,49.9041923 C197.543345,52.6983906 205.457938,52.6983906 210.339116,49.9054641 C212.973464,48.3983522 214.173228,46.3850542 213.964071,44.4124545 L214,44.4124545 L214,35.8899591" id="Fill-109" fill="#1A282B"></path>
            <path d="M192.661705,30.903267 C187.779432,33.4423047 187.779432,37.5576953 192.661705,40.0955773 C197.542696,42.6346149 205.456983,42.6346149 210.339257,40.096733 C215.220248,37.558851 215.220248,33.4423047 210.339257,30.9044227 C205.456983,28.3653851 197.542696,28.3653851 192.661705,30.903267" id="Fill-110" fill="#ECECE8"></path>
            <path d="M218,27.2288363 L208.954912,27.2288363 C203.706195,25.5903879 197.292522,25.5903879 192.043805,27.2288363 L183,27.2288363 L183,32.5205479 L183.050037,32.5205479 C182.758798,35.2441861 184.438233,38.0242793 188.124267,40.1055855 C194.960044,43.9645957 206.041239,43.9645957 212.87445,40.1068401 C216.56305,38.0242793 218.241202,35.2454407 217.949963,32.5205479 L218,32.5205479 L218,27.2288363" id="Fill-111" fill="#293D42"></path>
            <path d="M188.125777,20.7828709 C181.291408,24.4921592 181.291408,30.5078408 188.125777,34.2171291 C194.958863,37.9276236 206.041137,37.9276236 212.874223,34.2171291 C219.708592,30.5078408 219.708592,24.4933655 212.874223,20.7828709 C206.041137,17.0723764 194.958863,17.0723764 188.125777,20.7828709" id="Fill-112" fill="#365158"></path>
            <path d="M193.238699,46 C193.119007,46 192.998041,45.98063 192.879622,45.935837 C183.23292,42.3354475 177,33.6407611 177,23.7862989 C177,10.6704213 188.221803,0 202.016994,0 C202.560703,0 203,0.417664552 203,0.9346001 C203,1.45032503 202.560703,1.86798958 202.016994,1.86798958 C189.306675,1.86798958 178.964739,11.7006606 178.964739,23.7862989 C178.964739,32.8671737 184.708703,40.8778588 193.59905,44.1961734 C194.103286,44.3838198 194.352858,44.9261784 194.154219,45.4080059 C194.00142,45.7748243 193.630883,46 193.238699,46" id="Fill-113" fill="#365158"></path>
            <path d="M73,225 C69.8537909,225 67.0268198,227.535219 67.0268198,234.837406 C67.0268198,242.139593 66.3843863,248 71.3879801,248 L73,225" id="Fill-114" fill="#00A497"></path>
            <path d="M69.4752615,247 C67.2728301,245.860086 67,242.744784 67,238.721967 C67,237.40543 67.0282725,235.991285 67.0282725,234.517879 C67.0282725,228.368616 69.2462539,225.654202 72,225 C71.8049194,225.661174 71.7017246,226.352559 71.7017246,227.063698 L71.7017246,241.025036 C70.9539157,242.998099 70.1962115,245.036233 69.4752615,247" id="Fill-115" fill="#91CFC7"></path>
            <path d="M80.7911185,281 L101.208882,281 C106.615762,281 111,276.980038 111,272.022403 L111,228.977597 C111,224.019962 106.615762,220 101.208882,220 L80.7911185,220 C75.3829386,220 71,224.019962 71,228.977597 L71,272.022403 C71,276.980038 75.3829386,281 80.7911185,281" id="Fill-116" fill="#00A497"></path>
            <path d="M82.9096225,281 L81.6721974,281 C76.3297043,281 72,276.980038 72,272.022403 L72,261.939138 L78.1075402,258.230146 C81.0367976,251.889234 85.5449273,242.220595 85.5449273,242.220595 L87.4793667,246.282257 L87.4793667,246.283449 L89.3727299,251.144576 C87.746363,254.908375 86.0262908,257.225751 86.0262908,257.225751 L86.0262908,263.622661 C86.0262908,263.622661 88.8246173,261.356518 91.8129219,257.43783 L93.3122088,261.263585 C90.2815442,265.743447 87.5422649,268.999687 85.5975563,272.718212 L85.5051345,272.721786 C85.1534183,273.514102 84.7015784,274.506582 84.2600076,275.717098 C84.145764,276.026876 84.0366549,276.342611 83.9326804,276.664303 C83.5283351,277.90818 83.1560806,279.348646 82.9096225,281 M72,243.292902 L72,228.977597 C72,224.019962 76.3297043,220 81.6721974,220 L99,220 L98.9845964,222.882124 L98.9845964,222.883316 L97.7702767,222.915485 C97.7702767,222.915485 97.5392222,222.942888 97.1387278,222.990547 C97.1002187,222.752256 96.4981934,222.653365 95.6240373,222.653365 C93.1055434,222.653365 88.335552,223.475468 88.3304174,224.165319 C88.3291338,224.172468 88.3304174,224.180808 88.3317011,224.189148 C87.1738614,224.382163 86.2753162,224.564456 85.9300181,224.708621 C82.2934772,225.082738 78.6813255,225.500938 75.6557954,233.034494 C74.6917847,235.437654 73.3632215,239.233622 72,243.292902" id="Fill-117" fill="#00A290"></path>
            <path d="M114,222 L117.763605,222 C121.626421,222 125.012506,224.316093 126.027816,227.654637 L131,244 L114,244 L114,222" id="Fill-118" fill="#E88587"></path>
            <path d="M77.102437,257.282755 C79.9780021,250.797849 84.4034993,240.909648 84.4034993,240.909648 L86.3024811,245.064764 C86.3024811,245.064764 91.6239146,240.566028 91.9628835,234.910927 C92.6017579,224.269687 84.7815315,223 84.7815315,223 C81.2116472,223.382612 77.665705,223.810309 74.6956319,231.514942 C72.4286987,237.396686 68.1153511,251.452189 66.1999879,257.775033 C65.6089975,259.728303 66.3562412,261.814391 68.0662069,263 L77.102437,257.282755" id="Fill-119" fill="#EC9C9E"></path>
            <path d="M107.413435,214 L102.585268,214 C92.8731682,214 85,206.667426 85,197.623676 C85,187.338509 93.9534431,179 105,179 C116.04526,179 125,187.338509 125,197.623676 C125,206.667426 117.126832,214 107.413435,214" id="Fill-120" fill="#1A282B"></path>
            <path d="M61.501528,360.162732 C60.005597,359.455036 59.0543318,361.200997 57.6977339,362.601257 C56.7464687,363.584815 55.2619377,365.139884 55.041538,366.258463 C54.7172719,367.915962 56.3424027,370.524427 58.1423332,371.961935 C59.9422638,373.400606 62.0309939,374.429559 62.6858595,377.5816 C63.3394585,380.734805 64.6719898,382.608803 68.2287843,384.018375 C72.125045,385.562968 77.3437036,385.06828 79.1145008,384.018375 C81.2120976,382.774087 79.2969005,381.407582 76.3582384,377.542025 C72.5227777,372.49969 69.5359823,368.897192 69.5359823,364.192409 L61.501528,360.162732" id="Fill-121" fill="#1A282B"></path>
            <path d="M64.6671276,355 L61.7370681,359.40533 C60.46769,361.31475 60.8637077,363.977538 62.7259337,365.276282 L62.8178664,365.337954 C64.5999461,366.524237 66.9913744,366.050208 68.4269385,364.443103 L73,359.3231 L64.6671276,355" id="Fill-122" fill="#EC9C9E"></path>
            <path d="M125.98896,276.424716 C126.188113,281.951808 123.681578,298.391424 119.383937,308.970632 C115.360289,318.874876 111.719725,324.172218 110.438551,326.229253 C109.157377,328.285098 72.2570266,362 72.2570266,362 C72.2570266,362 65.995764,361.56907 65,355.869368 C65,355.869368 80.1203911,331.749202 83.3930932,326.801842 C86.6657953,321.855672 98.2635919,314.270355 98.2635919,314.270355 L97.2082089,271 L125.98896,276.424716" id="Fill-123" fill="#00A497"></path>
            <path d="M72.2569818,362 C72.2569818,362 72.1999002,361.995215 72.0946162,361.983251 C71.1166171,361.869601 66.0097112,361.035764 65.0304436,356.000445 C65.0190272,355.947807 65.0101479,355.892776 65,355.838942 C65,355.838942 80.1202978,331.599065 83.3929797,326.627151 C85.3236083,323.694966 90.1489114,319.841613 93.7831105,317.172618 C93.9416707,317.501607 94.1002308,317.828203 94.2549855,318.147621 C95.4765331,323.736837 98.1466864,329.250685 98.1466864,329.250685 C97.2752397,332.303699 97.2054732,337.023189 97.2054732,338.456383 C97.2054732,338.723163 97.2080101,338.875096 97.2080101,338.88347 C96.2401589,339.790282 95.2520119,340.713843 94.2524486,341.646974 C91.6102019,344.112593 88.8905779,346.639225 86.3066814,349.034262 C84.0766911,351.101507 81.9456425,353.070653 80.0479943,354.823264 C75.4763875,359.043888 72.2569818,362 72.2569818,362 M99.6498368,328.574763 C98.9293393,327.646417 97.7306245,325.251381 96.6257772,322.891037 C98.4168729,326.381905 99.6498368,328.574763 99.6498368,328.574763 M114.328703,319.523391 C114.250057,318.976672 114.167606,318.421578 114.085155,317.860503 L112.214145,293.131331 C114.85766,290.491048 117.266506,287.17604 117.266506,287.17604 C115.229325,289.359328 109.87887,292.163507 109.87887,292.163507 C109.87887,292.163507 112.472915,289.935955 116.571378,284.595574 C118.030132,282.694618 119.077897,280.8463 119.826301,279.136756 C121.846992,278.300527 123.9032,277.265709 125.988584,276 C125.996195,276.205767 126,276.427087 126,276.662762 C126,282.773575 123.522656,298.470516 119.383601,308.707444 C117.558257,313.222363 115.811558,316.786206 114.328703,319.523391 M113.641186,314.922336 C111.978207,304.069303 109.87887,292.163507 109.87887,292.163507 C110.565119,294.831305 112.706315,308.7541 113.641186,314.922336" id="Fill-124" fill="#009278"></path>
            <polyline id="Fill-125" fill="#EC9C9E" points="114.735891 389 123 387.378754 120.264109 377 112 378.620087 114.735891 389"></polyline>
            <path d="M118.544774,271 L85.8242351,272.216778 C84.7054667,274.79251 82.5479311,279.489014 83.08419,286.911718 C84.1754579,302.03555 99.3032072,329.084285 99.3032072,329.084285 C99.1207042,331.137525 98.2044391,339.768714 100.270723,347.420082 C103.530777,359.490713 112.414673,379.917662 112.414673,379.917662 C112.414673,379.917662 117.981015,380.671187 120.74481,377.619171 C120.74481,377.619171 115.825979,336.145628 114.499708,325.519255 C113.065934,314.020877 109.383373,293.024045 109.383373,293.024045 C109.383373,293.024045 111.939665,290.817967 115.978482,285.529069 C121.854829,277.833864 120.949814,271 120.949814,271 L118.544774,271" id="Fill-126" fill="#00A497"></path>
            <path d="M114.145251,380 C113.225328,380 112.613724,379.916901 112.613724,379.916901 C112.613724,379.916901 103.669956,359.449657 100.387932,347.355215 C99.490661,344.050255 99.1521394,340.564852 99.0715989,337.502066 L99.0728573,337.502066 C99.069082,337.405909 99.0665651,337.283635 99.0665651,337.138806 C99.0665651,335.146808 99.4138959,328.983248 99.4138959,328.983248 C99.4138959,328.983248 98.1906875,326.807246 96.4137634,323.343211 C95.0647106,320.458495 93.857862,317.624824 93.857862,317.624824 C93.9195258,317.960781 93.9887402,318.299112 94.06173,318.636256 C89.5590144,309.370735 83.7475162,295.873109 83.0855742,286.727489 C83.0264273,285.928553 83,285.161669 83,284.424464 C83,280.92719 83.6002782,278.12201 84.3024904,275.931762 C84.2836137,275.992306 84.2647371,276.051662 84.2458604,276.112205 C86.1448536,278.187302 94.0403365,282.906129 104.777388,282.907316 C109.246125,282.907316 114.205656,282.090573 119.430719,279.925255 C118.688237,281.621658 117.648761,283.455769 116.20155,285.342112 C112.135515,290.641444 109.561995,292.851873 109.561995,292.851873 C109.561995,292.851873 111.644721,304.666154 113.294542,315.435763 C113.566366,317.227137 113.734998,318.359655 113.734998,318.359655 L113.734998,318.351345 C114.112531,320.897731 114.449795,323.312346 114.71281,325.411185 C116.04802,336.058521 121,377.613876 121,377.613876 C119.136243,379.661669 116.009008,380 114.145251,380 M84.6233938,274.987997 C85.0562988,273.781877 85.4992714,272.793 85.8440853,272.003561 L85.9346933,272 C85.4438999,272.955637 85.0034442,273.942139 84.6233938,274.987997" id="Fill-127" fill="#009278"></path>
            <path d="M121.751996,383.026293 L121.49577,382 C122.324661,382.142443 125.860579,387.495744 129.369594,389.821541 C133.212983,392.368007 136.549045,393.87417 138.265758,395.02189 C140.561543,396.55841 137.237011,399.702672 131.583386,399.984056 C128.777712,400.122996 123.669847,399.345396 122.094058,397.982844 C120.520831,396.621459 119.380625,394.368052 118.132805,393.388462 C116.886266,392.41004 114.359878,391.553045 113.504083,390.299076 C113.033908,389.609043 112.962165,387.902058 113.014691,386.435592 C113.063374,385.090554 113.110776,383.611244 113.616822,383.632261 C113.656537,383.78638 113.811554,384.415699 113.811554,384.415699 C114.527706,384.874553 116.774807,385.456002 118.60426,385.378943 C119.934073,385.321732 122.410497,385.040348 121.751996,383.026293" id="Fill-128" fill="#1A282B"></path>
            <path d="M112.985577,317 C112.985577,317 109.840144,294.519684 109,291.037379 C109,291.037379 114.069712,288.205137 116,286 C116,286 113.717548,289.348184 111.21274,292.014889 L112.985577,317" id="Fill-129" fill="#00A497"></path>
            <path d="M112.985577,317 C112.985577,317 109.840144,294.519684 109,291.037379 C109,291.037379 114.069712,288.205137 116,286 C116,286 113.717548,289.348184 111.21274,292.014889 L112.985577,317" id="Fill-130" fill="#006755"></path>
            <path d="M92,317 C92,317 96.2767837,326.478691 98,328.575254 C98,328.575254 97.5691959,335.79769 97.6317101,337.256695 L95.3839185,339 C95.3839185,339 95.2779162,332.935331 96.389581,329.258785 C96.389581,329.258785 93.1701019,322.983613 92,317" id="Fill-131" fill="#00A497"></path>
            <path d="M95.3839185,339 L95.3839185,339 C95.3839185,338.991531 95.3812005,338.837888 95.3812005,338.568106 C95.3812005,337.118779 95.4559456,332.346164 96.389581,329.258785 C96.389581,329.258785 93.1701019,322.983613 92,317 C92,317 96.2767837,326.478691 98,328.575254 C98,328.575254 97.6249151,334.856475 97.6249151,336.8865 C97.6249151,337.034094 97.6276331,337.158702 97.6317101,337.256695 L97.6303511,337.256695 L95.3839185,339" id="Fill-132" fill="#006755"></path>
            <path d="M97.747803,221.372175 C97.747803,221.372175 87.4137732,222.581448 86.0332778,223.161709 C92.9014643,229.686074 87.5661738,244.693184 87.5661738,244.693184 L93.337076,259.643219 C89.2933804,265.671747 85.7754668,269.481491 84,275.193729 C87.0200716,278.468397 105.057951,288.319748 125.677751,275.895273 C125.677751,275.895273 124.467436,265.043924 122.741499,256.834662 C125.715851,243.514827 126.537544,238.82399 125.677751,235.707467 C123.255851,226.934592 117.70847,221.326991 111.345745,221 L97.747803,221.372175" id="Fill-133" fill="#00A497"></path>
            <path d="M117.610769,188 C119.678654,189.161585 122.235265,194.109794 121.982651,204.480747 C121.769388,213.269915 118.773557,215.440945 117.269295,216.066414 C115.766301,216.69309 112.865677,216.312737 110.045026,215.864766 L110.045026,221.140199 C110.045026,221.140199 113.942145,225.446034 113.697147,227.864595 C113.452149,230.284363 108.069808,230.855496 104.422765,228.492479 C100.775721,226.129462 97.7037252,221.522967 97.7037252,221.522967 L97.7671962,209.395146 C97.7671962,209.395146 96.1080644,210.927425 93.2937604,208.58735 C90.9707219,206.655399 90.1874898,203.397647 91.998952,201.649232 C93.8078754,199.900816 97.1553358,200.377767 98.4387193,202.869983 C98.4387193,202.869983 102.935005,203.026954 108.924128,199.897194 C114.911982,196.767434 117.21344,191.407478 117.610769,188" id="Fill-134" fill="#EC9C9E"></path>
            <path d="M110.998549,202.954785 C111.028048,203.506829 110.604135,203.9737 110.052392,203.998936 C109.500648,204.024173 109.030847,203.597259 109.001348,203.046267 C108.972942,202.494223 109.396855,202.0263 109.948598,202.001064 C110.500341,201.975827 110.971235,202.402741 110.998549,202.954785" id="Fill-135" fill="#1A282B"></path>
            <path d="M113.043379,209 L115,209.909319 C114.838022,210.724756 114.267418,211.182098 113.728105,210.931297 C113.186951,210.680497 112.881402,209.815437 113.043379,209" id="Fill-136" fill="#E88587"></path>
            <path d="M120.819042,199 L119,197.569417 C119.331985,196.980026 120.007741,196.822929 120.51063,197.217342 C121.013518,197.612869 121.151027,198.410609 120.819042,199" id="Fill-137" fill="#1A282B"></path>
            <path d="M120.998549,201.954235 C121.028047,202.505517 120.604155,202.973686 120.05244,202.998936 C119.499633,203.024185 119.029856,202.597047 119.001451,202.045765 C118.971953,201.493431 119.395845,201.026314 119.94756,201.001064 C120.499275,200.975815 120.970144,201.402953 120.998549,201.954235" id="Fill-138" fill="#1A282B"></path>
            <polyline id="Fill-139" fill="#E88587" points="116 200 116.190414 207 120 205.859165 116 200"></polyline>
            <path d="M111,215.97981 C107.743677,215.554434 101.044638,213.638163 100,211 C100,211 100.34914,212.657165 102.349393,214.365598 C104.351037,216.07403 111,218 111,218 L111,215.97981" id="Fill-140" fill="#E88587"></path>
            <polyline id="Fill-141" fill="#00A497" points="91 252 98 263 93.6639101 260.491939 91 252"></polyline>
            <path d="M98,261 L92.5912807,258.731588 L91,255.052864 C91.2847411,254.714894 91.5708447,254.363175 91.8569482,254 L98,261" id="Fill-142" fill="#009F86"></path>
            <path d="M100.463517,268.234823 C100.473772,268.112857 100.536587,267.990891 100.653242,267.866601 C101.592894,266.876933 104.768227,264.78957 104.982309,264.281959 C105.195109,263.774347 103.473481,263.296937 100.608374,263.702329 C97.7432679,264.108883 92.1374016,265.544599 88.5044207,265.337837 C86.1367017,265.201932 80.6987678,260.360457 77.1926978,257 L68,262.450144 C73.944295,266.313566 82.257591,270.822828 86.3328366,272.055267 C90.2298943,273.23195 93.4077911,275.262395 97.9701689,276" id="Fill-143" fill="#EC9C9E"></path>
            <polyline id="Fill-144" fill="#365158" points="105.408231 239.567544 121.160605 243.054797 131.275554 234.667839 144.300387 237.763212 154 229 136.948435 270.167861 131.275554 274.855999 120.920014 274.43046 111.127963 282 100 279.667952 105.408231 239.567544"></polyline>
            <polyline id="Fill-145" fill="#293D42" points="131 235 120.720319 274.483581 111 282 120.959148 243.328102 131 235"></polyline>
            <polyline id="Fill-146" fill="#293D42" points="143.609607 237.790731 153 229 136.492032 270.29714 131 275 143.609607 237.790731"></polyline>
            <path d="M79,219 L82.4232106,219 C87.1598332,219 91,215.683073 91,211.591837 L91,189 L87.5767894,189 C82.8401668,189 79,192.316927 79,196.408163 L79,219" id="Fill-147" fill="#1A282B"></path>
            <path d="M88.2494929,222.574183 C88.2494929,222.574183 91.8416675,225.166067 92.0295427,236.403264 C92.2186705,247.640461 86,256.442118 86,256.442118 L86,263 C86,263 95.75323,254.696688 98.0816305,242.354093 C100.716894,228.386989 96.8429064,221.345419 96.8429064,221.345419 C96.6988688,220.390258 88.1054552,221.619021 88.2494929,222.574183" id="Fill-148" fill="#00A497"></path>
            <path d="M86,263 L86,256.442157 C86,256.442157 92.0371905,247.897051 92.0334329,236.895655 C92.0334329,236.731984 92.0321804,236.568313 92.0296753,236.40342 C91.8417959,225.166289 88.2495423,222.57442 88.2495423,222.57442 C88.2482898,222.56587 88.2470373,222.558541 88.2482898,222.549991 C88.2532999,221.842785 92.9076982,221 95.3651604,221 C96.2181328,221 96.8068215,221.101378 96.8431448,221.345664 C96.8431448,221.345664 99,225.265224 99,233.056709 C99,235.708428 98.7507467,238.80841 98.0818961,242.354214 C97.0949032,247.580701 94.7777243,252.082883 92.4342422,255.537079 C92.1712111,255.924272 91.90818,256.29925 91.6464014,256.659571 C88.7305135,260.676845 86,263 86,263" id="Fill-149" fill="#91CFC7"></path>
            <path d="M124,231 C124,231 118.511628,222.970839 112,221.366061 C112,221.366061 115.612615,220.160501 119.085059,222.124971 C119.085059,222.124971 122.724435,225.135577 124,231" id="Fill-150" fill="#00A497"></path>
            <path d="M124,231 C124,231 118.511628,222.971014 112,221.366271 C112,221.366271 113.097165,221 114.663269,221 C115.938834,221 117.525327,221.243742 119.085059,222.125165 C119.085059,222.125165 122.724435,225.135705 124,231" id="Fill-151" fill="#91CFC7"></path>
            <path d="M112.972634,271.490225 C112.536998,270.126145 110.464312,271.45673 106.843937,270.990101 C103.675334,270.583534 101.339529,269.838545 101.413997,269 L99,276.721315 C100.012762,276.891103 101.096267,276.99159 102.274099,276.999675 C108.590206,277.042411 113.40827,272.85546 112.972634,271.490225" id="Fill-152" fill="#EC9C9E"></path>
            <path d="M406.028912,68.6086561 L394.944835,74.5372338 C395.000443,74.0783321 395.03924,73.6242232 395.03924,73.1785015 L395.03924,70.2034291 C395.03924,64.9098851 391.027712,62.7639509 386.078609,65.4107229 C384.075431,66.4830909 382.231318,68.1809071 380.738957,70.168682 C379.928116,63.511613 374.29232,61.0313876 367.444789,64.6942133 C360.041179,68.6541868 354.040699,78.28513 354.040699,86.2062753 L354.040699,90.656303 C354.040699,92.7075813 354.449352,94.4353519 355.176135,95.8120568 L345.968501,100.736562 C343.224316,102.205527 341,105.776093 341,108.711626 C341,111.648356 343.224316,112.839344 345.968501,111.371578 L406.028912,79.2424731 C408.774391,77.7747068 411,74.2041407 411,71.2674099 C411,68.3318773 408.774391,67.1408898 406.028912,68.6086561" id="Fill-153" fill="#ECECE8"></path>
        </g>
    </g>
</svg>