<?xml version="1.0" encoding="UTF-8"?>
<svg width="650px" height="1000px" viewBox="0 0 650 1000" version="1.1" xmlns="http://www.w3.org/2000/svg" xmlns:xlink="http://www.w3.org/1999/xlink">
    <title>s1-bg-2</title>
    <defs>
        <linearGradient x1="0.000246407365%" y1="49.9947105%" x2="100.001103%" y2="49.9947105%" id="linearGradient-1">
            <stop stop-color="#D7FF95" offset="0%"></stop>
            <stop stop-color="#51FCB7" offset="100%"></stop>
        </linearGradient>
        <linearGradient x1="0.000246407365%" y1="49.9947105%" x2="100.001103%" y2="49.9947105%" id="linearGradient-2">
            <stop stop-color="#D7FF95" offset="0%"></stop>
            <stop stop-color="#51FCB7" offset="100%"></stop>
        </linearGradient>
        <linearGradient x1="28.3549287%" y1="121.034242%" x2="71.9360668%" y2="37.9437606%" id="linearGradient-3">
            <stop stop-color="#D7FF95" offset="0%"></stop>
            <stop stop-color="#51FCB7" offset="100%"></stop>
        </linearGradient>
        <linearGradient x1="28.4160411%" y1="17.225588%" x2="70.5655418%" y2="78.9515892%" id="linearGradient-4">
            <stop stop-color="#D7FF95" offset="0%"></stop>
            <stop stop-color="#51FCB7" offset="100%"></stop>
        </linearGradient>
    </defs>
    <g id="s1-bg-2" stroke="none" stroke-width="1" fill="none" fill-rule="evenodd">
        <g id="2582524" transform="translate(-395.000000, -106.000000)" fill-rule="nonzero">
            <g id="Group" transform="translate(0.000000, 0.760120)">
                <path d="M1135.77962,228.92977 C1135.77962,228.92977 1144.62096,108.782511 998.971528,112.39705 C907.412477,114.674209 832.382077,241.6168 682.544637,303.967589 C603.828795,336.73338 273.981682,389.812878 463.837816,723.254052 L1127.08719,723.254052 L1135.77962,228.92977 Z" id="Path" fill="url(#linearGradient-1)"></path>
                <path d="M1170.22221,483.359997 C1170.22221,483.359997 1246.19787,448.096598 1100.54844,451.711136 C1060.74366,452.701118 999.933033,473.574592 958.871324,506.137901 C905.482773,548.476809 801.683693,523.153674 716.987221,558.397815 C638.271378,591.163607 308.424265,644.243104 498.280399,977.684279 L1161.52978,977.684279 L1170.22221,483.359997 Z" id="Path" fill="url(#linearGradient-2)" transform="translate(815.126315, 714.567693) scale(1, -1) translate(-815.126315, -714.567693) "></path>
                <path d="M1252.69992,599.101794 C1252.69992,599.101794 1261.54126,478.918385 1115.89182,482.532924 C1024.33277,484.810083 949.302368,611.752679 799.464929,674.10347 C720.749086,706.85119 390.901973,759.948762 580.758107,1093.38995 L1244.00748,1093.38995 L1252.69992,599.101794 Z" id="Path" fill="url(#linearGradient-3)" transform="translate(887.752411, 787.921473) scale(1, -1) translate(-887.752411, -787.921473) "></path>
                <path d="M1257.89637,305.545738 C1257.89637,305.545738 1266.73771,185.362329 1121.08828,188.976867 C1029.52923,191.254026 954.498825,318.196623 804.661386,380.547414 C725.945544,413.295134 396.09843,466.392706 585.954564,799.833893 L1249.20394,799.833893 L1257.89637,305.545738 Z" id="Path" fill="url(#linearGradient-4)"></path>
            </g>
        </g>
    </g>
</svg>